<svg data-name="Layer 1" xmlns="http://www.w3.org/2000/svg" xmlns:xlink="http://www.w3.org/1999/xlink" width="1027.3499755859375" height="783.969970703125" style=""><rect id="backgroundrect" width="100%" height="100%" x="0" y="0" fill="none" stroke="none"/><defs><linearGradient id="4f43e098-a778-42ef-b33c-7c47f8946c90" x1="0.5000239610671997" y1="1.0000337362289429" x2="0.5000239610671997" y2="-0.00000771709528635256"><stop offset="0" stop-color="gray" stop-opacity="0.25"/><stop offset="0.54" stop-color="gray" stop-opacity="0.12"/><stop offset="1" stop-color="gray" stop-opacity="0.1"/></linearGradient></defs><title>Calculator</title><g class="currentLayer" style=""><title>Layer 1</title><path d="M587.1949465873113,128.3946986794126 c-64.79006318224492,-2.3391644060611725 -126.49679030961306,-24.05700574601906 -185.43051452531836,-47.822916746139526 S284.47758278594847,30.48247843341551 221.23921587038785,17.88217664400736 c-40.673984651529736,-8.098706948437552 -87.18427470406823,-9.242298832432084 -119.95972254832122,13.40081333209639 c-31.534099996089935,21.83220112323761 -41.7251205543007,59.41477750030117 -47.21105241282157,94.32550862859989 c-4.114449371244007,26.261019303332205 -6.537069193351897,53.904742615551186 4.755142062902451,78.49196118116379 c7.838476208365819,17.070702100439348 21.763534180870238,31.41757633110751 31.39394905156405,47.76053760093191 C123.71374906199071,308.7494998150287 100.03815311155722,378.945213147661 63.748911052564836,434.45100066086525 c-17.01840317249298,26.063489309376564 -36.77977418365981,50.941802620887756 -49.92398517850643,78.6583055683841 s-19.22078552328685,59.51873877644539 -7.728356995355455,87.8174312157389 c11.402330469264712,28.06997287273407 38.5616998820492,49.11205798601759 67.98351892748542,63.92676589107168 c59.74460626635209,30.149230122566223 130.14073014259338,38.70537322972132 198.82500379270823,43.58123005286507 c151.9843584879054,10.801741769806199 304.7895814397816,6.123412461950295 457.17436683338747,1.4450837737613398 c56.40099043147393,-1.7361797589938277 113.04223853389885,-3.4931520706566346 168.53225164478135,-12.548317185467567 c30.803310200471515,-5.021406179027281 62.61771208561322,-13.005754335652227 84.98189617210119,-32.22848737239838 c28.390701432888818,-24.46246225813161 35.42831046395986,-65.8812648504886 16.40774221235006,-96.5607038267799 c-31.91451052098023,-51.45122239207876 -120.12990474700928,-64.2282551782373 -142.46405376050825,-119.44293208206909 c-12.283283218640918,-30.398740754593973 0.33035725118149273,-64.24904822663984 18.16964771110247,-92.44377542392067 c38.28139799299743,-60.46480066648428 102.44077810604904,-113.51705209274223 105.82443434020115,-182.63155863539032 c2.3225114249460432,-47.46944285503332 -28.52084132288951,-95.01165939654129 -76.21241098702649,-117.47803461551666 c-49.99406065076937,-23.53719143356102 -119.30901737007753,-20.57425143889759 -156.16887617111206,18.391030929986982 C711.1289527643967,115.01468335305435 644.3767763587894,130.47395592924477 587.1949465873113,128.3946986794126 z" fill="#c9d6e0" opacity="0.1" id="svg_1" class="" fill-opacity="1"/><path d="M587.1949465873113,128.3946986794126 c-64.79006318224492,-2.3391644060611725 -126.49679030961306,-24.05700574601906 -185.43051452531836,-47.822916746139526 S284.47758278594847,30.48247843341551 221.23921587038785,17.88217664400736 c-40.673984651529736,-8.098706948437552 -87.18427470406823,-9.242298832432084 -119.95972254832122,13.40081333209639 c-31.534099996089935,21.83220112323761 -41.7251205543007,59.41477750030117 -47.21105241282157,94.32550862859989 c-4.114449371244007,26.261019303332205 -6.537069193351897,53.904742615551186 4.755142062902451,78.49196118116379 c7.838476208365819,17.070702100439348 21.763534180870238,31.41757633110751 31.39394905156405,47.76053760093191 C123.71374906199071,308.7494998150287 100.03815311155722,378.945213147661 63.748911052564836,434.45100066086525 c-17.01840317249298,26.063489309376564 -36.77977418365981,50.941802620887756 -49.92398517850643,78.6583055683841 s-19.22078552328685,59.51873877644539 -7.728356995355455,87.8174312157389 c11.402330469264712,28.06997287273407 38.5616998820492,49.11205798601759 67.98351892748542,63.92676589107168 c59.74460626635209,30.149230122566223 130.14073014259338,38.70537322972132 198.82500379270823,43.58123005286507 c151.9843584879054,10.801741769806199 304.7895814397816,6.123412461950295 457.17436683338747,1.4450837737613398 c56.40099043147393,-1.7361797589938277 113.04223853389885,-3.4931520706566346 168.53225164478135,-12.548317185467567 c30.803310200471515,-5.021406179027281 62.61771208561322,-13.005754335652227 84.98189617210119,-32.22848737239838 c28.390701432888818,-24.46246225813161 35.42831046395986,-65.8812648504886 16.40774221235006,-96.5607038267799 c-31.91451052098023,-51.45122239207876 -120.12990474700928,-64.2282551782373 -142.46405376050825,-119.44293208206909 c-12.283283218640918,-30.398740754593973 0.33035725118149273,-64.24904822663984 18.16964771110247,-92.44377542392067 c38.28139799299743,-60.46480066648428 102.44077810604904,-113.51705209274223 105.82443434020115,-182.63155863539032 c2.3225114249460432,-47.46944285503332 -28.52084132288951,-95.01165939654129 -76.21241098702649,-117.47803461551666 c-49.99406065076937,-23.53719143356102 -119.30901737007753,-20.57425143889759 -156.16887617111206,18.391030929986982 C711.1289527643967,115.01468335305435 644.3767763587894,130.47395592924477 587.1949465873113,128.3946986794126 z" fill="#c9d6e0" opacity="0.1" class="" fill-opacity="1" id="svg_140"/><path d="M587.1949465873113,128.3946986794126 c-64.79006318224492,-2.3391644060611725 -126.49679030961306,-24.05700574601906 -185.43051452531836,-47.822916746139526 S284.47758278594847,30.48247843341551 221.23921587038785,17.88217664400736 c-40.673984651529736,-8.098706948437552 -87.18427470406823,-9.242298832432084 -119.95972254832122,13.40081333209639 c-31.534099996089935,21.83220112323761 -41.7251205543007,59.41477750030117 -47.21105241282157,94.32550862859989 c-4.114449371244007,26.261019303332205 -6.537069193351897,53.904742615551186 4.755142062902451,78.49196118116379 c7.838476208365819,17.070702100439348 21.763534180870238,31.41757633110751 31.39394905156405,47.76053760093191 C123.71374906199071,308.7494998150287 100.03815311155722,378.945213147661 63.748911052564836,434.45100066086525 c-17.01840317249298,26.063489309376564 -36.77977418365981,50.941802620887756 -49.92398517850643,78.6583055683841 s-19.22078552328685,59.51873877644539 -7.728356995355455,87.8174312157389 c11.402330469264712,28.06997287273407 38.5616998820492,49.11205798601759 67.98351892748542,63.92676589107168 c59.74460626635209,30.149230122566223 130.14073014259338,38.70537322972132 198.82500379270823,43.58123005286507 c151.9843584879054,10.801741769806199 304.7895814397816,6.123412461950295 457.17436683338747,1.4450837737613398 c56.40099043147393,-1.7361797589938277 113.04223853389885,-3.4931520706566346 168.53225164478135,-12.548317185467567 c30.803310200471515,-5.021406179027281 62.61771208561322,-13.005754335652227 84.98189617210119,-32.22848737239838 c28.390701432888818,-24.46246225813161 35.42831046395986,-65.8812648504886 16.40774221235006,-96.5607038267799 c-31.91451052098023,-51.45122239207876 -120.12990474700928,-64.2282551782373 -142.46405376050825,-119.44293208206909 c-12.283283218640918,-30.398740754593973 0.33035725118149273,-64.24904822663984 18.16964771110247,-92.44377542392067 c38.28139799299743,-60.46480066648428 102.44077810604904,-113.51705209274223 105.82443434020115,-182.63155863539032 c2.3225114249460432,-47.46944285503332 -28.52084132288951,-95.01165939654129 -76.21241098702649,-117.47803461551666 c-49.99406065076937,-23.53719143356102 -119.30901737007753,-20.57425143889759 -156.16887617111206,18.391030929986982 C711.1289527643967,115.01468335305435 644.3767763587894,130.47395592924477 587.1949465873113,128.3946986794126 z" fill="#c9d6e0" opacity="0.1" class="" fill-opacity="1" id="svg_141"/><path d="M587.1949465873113,128.3946986794126 c-64.79006318224492,-2.3391644060611725 -126.49679030961306,-24.05700574601906 -185.43051452531836,-47.822916746139526 S284.47758278594847,30.48247843341551 221.23921587038785,17.88217664400736 c-40.673984651529736,-8.098706948437552 -87.18427470406823,-9.242298832432084 -119.95972254832122,13.40081333209639 c-31.534099996089935,21.83220112323761 -41.7251205543007,59.41477750030117 -47.21105241282157,94.32550862859989 c-4.114449371244007,26.261019303332205 -6.537069193351897,53.904742615551186 4.755142062902451,78.49196118116379 c7.838476208365819,17.070702100439348 21.763534180870238,31.41757633110751 31.39394905156405,47.76053760093191 C123.71374906199071,308.7494998150287 100.03815311155722,378.945213147661 63.748911052564836,434.45100066086525 c-17.01840317249298,26.063489309376564 -36.77977418365981,50.941802620887756 -49.92398517850643,78.6583055683841 s-19.22078552328685,59.51873877644539 -7.728356995355455,87.8174312157389 c11.402330469264712,28.06997287273407 38.5616998820492,49.11205798601759 67.98351892748542,63.92676589107168 c59.74460626635209,30.149230122566223 130.14073014259338,38.70537322972132 198.82500379270823,43.58123005286507 c151.9843584879054,10.801741769806199 304.7895814397816,6.123412461950295 457.17436683338747,1.4450837737613398 c56.40099043147393,-1.7361797589938277 113.04223853389885,-3.4931520706566346 168.53225164478135,-12.548317185467567 c30.803310200471515,-5.021406179027281 62.61771208561322,-13.005754335652227 84.98189617210119,-32.22848737239838 c28.390701432888818,-24.46246225813161 35.42831046395986,-65.8812648504886 16.40774221235006,-96.5607038267799 c-31.91451052098023,-51.45122239207876 -120.12990474700928,-64.2282551782373 -142.46405376050825,-119.44293208206909 c-12.283283218640918,-30.398740754593973 0.33035725118149273,-64.24904822663984 18.16964771110247,-92.44377542392067 c38.28139799299743,-60.46480066648428 102.44077810604904,-113.51705209274223 105.82443434020115,-182.63155863539032 c2.3225114249460432,-47.46944285503332 -28.52084132288951,-95.01165939654129 -76.21241098702649,-117.47803461551666 c-49.99406065076937,-23.53719143356102 -119.30901737007753,-20.57425143889759 -156.16887617111206,18.391030929986982 C711.1289527643967,115.01468335305435 644.3767763587894,130.47395592924477 587.1949465873113,128.3946986794126 z" fill="#c9d6e0" opacity="0.1" class="" fill-opacity="1" id="svg_142"/><path d="M587.1949465873113,128.3946986794126 c-64.79006318224492,-2.3391644060611725 -126.49679030961306,-24.05700574601906 -185.43051452531836,-47.822916746139526 S284.47758278594847,30.48247843341551 221.23921587038785,17.88217664400736 c-40.673984651529736,-8.098706948437552 -87.18427470406823,-9.242298832432084 -119.95972254832122,13.40081333209639 c-31.534099996089935,21.83220112323761 -41.7251205543007,59.41477750030117 -47.21105241282157,94.32550862859989 c-4.114449371244007,26.261019303332205 -6.537069193351897,53.904742615551186 4.755142062902451,78.49196118116379 c7.838476208365819,17.070702100439348 21.763534180870238,31.41757633110751 31.39394905156405,47.76053760093191 C123.71374906199071,308.7494998150287 100.03815311155722,378.945213147661 63.748911052564836,434.45100066086525 c-17.01840317249298,26.063489309376564 -36.77977418365981,50.941802620887756 -49.92398517850643,78.6583055683841 s-19.22078552328685,59.51873877644539 -7.728356995355455,87.8174312157389 c11.402330469264712,28.06997287273407 38.5616998820492,49.11205798601759 67.98351892748542,63.92676589107168 c59.74460626635209,30.149230122566223 130.14073014259338,38.70537322972132 198.82500379270823,43.58123005286507 c151.9843584879054,10.801741769806199 304.7895814397816,6.123412461950295 457.17436683338747,1.4450837737613398 c56.40099043147393,-1.7361797589938277 113.04223853389885,-3.4931520706566346 168.53225164478135,-12.548317185467567 c30.803310200471515,-5.021406179027281 62.61771208561322,-13.005754335652227 84.98189617210119,-32.22848737239838 c28.390701432888818,-24.46246225813161 35.42831046395986,-65.8812648504886 16.40774221235006,-96.5607038267799 c-31.91451052098023,-51.45122239207876 -120.12990474700928,-64.2282551782373 -142.46405376050825,-119.44293208206909 c-12.283283218640918,-30.398740754593973 0.33035725118149273,-64.24904822663984 18.16964771110247,-92.44377542392067 c38.28139799299743,-60.46480066648428 102.44077810604904,-113.51705209274223 105.82443434020115,-182.63155863539032 c2.3225114249460432,-47.46944285503332 -28.52084132288951,-95.01165939654129 -76.21241098702649,-117.47803461551666 c-49.99406065076937,-23.53719143356102 -119.30901737007753,-20.57425143889759 -156.16887617111206,18.391030929986982 C711.1289527643967,115.01468335305435 644.3767763587894,130.47395592924477 587.1949465873113,128.3946986794126 z" fill="#c9d6e0" opacity="0.1" class="" fill-opacity="1" id="svg_143"/><path d="M587.1949465873113,128.3946986794126 c-64.79006318224492,-2.3391644060611725 -126.49679030961306,-24.05700574601906 -185.43051452531836,-47.822916746139526 S284.47758278594847,30.48247843341551 221.23921587038785,17.88217664400736 c-40.673984651529736,-8.098706948437552 -87.18427470406823,-9.242298832432084 -119.95972254832122,13.40081333209639 c-31.534099996089935,21.83220112323761 -41.7251205543007,59.41477750030117 -47.21105241282157,94.32550862859989 c-4.114449371244007,26.261019303332205 -6.537069193351897,53.904742615551186 4.755142062902451,78.49196118116379 c7.838476208365819,17.070702100439348 21.763534180870238,31.41757633110751 31.39394905156405,47.76053760093191 C123.71374906199071,308.7494998150287 100.03815311155722,378.945213147661 63.748911052564836,434.45100066086525 c-17.01840317249298,26.063489309376564 -36.77977418365981,50.941802620887756 -49.92398517850643,78.6583055683841 s-19.22078552328685,59.51873877644539 -7.728356995355455,87.8174312157389 c11.402330469264712,28.06997287273407 38.5616998820492,49.11205798601759 67.98351892748542,63.92676589107168 c59.74460626635209,30.149230122566223 130.14073014259338,38.70537322972132 198.82500379270823,43.58123005286507 c151.9843584879054,10.801741769806199 304.7895814397816,6.123412461950295 457.17436683338747,1.4450837737613398 c56.40099043147393,-1.7361797589938277 113.04223853389885,-3.4931520706566346 168.53225164478135,-12.548317185467567 c30.803310200471515,-5.021406179027281 62.61771208561322,-13.005754335652227 84.98189617210119,-32.22848737239838 c28.390701432888818,-24.46246225813161 35.42831046395986,-65.8812648504886 16.40774221235006,-96.5607038267799 c-31.91451052098023,-51.45122239207876 -120.12990474700928,-64.2282551782373 -142.46405376050825,-119.44293208206909 c-12.283283218640918,-30.398740754593973 0.33035725118149273,-64.24904822663984 18.16964771110247,-92.44377542392067 c38.28139799299743,-60.46480066648428 102.44077810604904,-113.51705209274223 105.82443434020115,-182.63155863539032 c2.3225114249460432,-47.46944285503332 -28.52084132288951,-95.01165939654129 -76.21241098702649,-117.47803461551666 c-49.99406065076937,-23.53719143356102 -119.30901737007753,-20.57425143889759 -156.16887617111206,18.391030929986982 C711.1289527643967,115.01468335305435 644.3767763587894,130.47395592924477 587.1949465873113,128.3946986794126 z" fill="#c9d6e0" opacity="0.1" class="" fill-opacity="1" id="svg_144"/><path d="M587.1949465873113,128.3946986794126 c-64.79006318224492,-2.3391644060611725 -126.49679030961306,-24.05700574601906 -185.43051452531836,-47.822916746139526 S284.47758278594847,30.48247843341551 221.23921587038785,17.88217664400736 c-40.673984651529736,-8.098706948437552 -87.18427470406823,-9.242298832432084 -119.95972254832122,13.40081333209639 c-31.534099996089935,21.83220112323761 -41.7251205543007,59.41477750030117 -47.21105241282157,94.32550862859989 c-4.114449371244007,26.261019303332205 -6.537069193351897,53.904742615551186 4.755142062902451,78.49196118116379 c7.838476208365819,17.070702100439348 21.763534180870238,31.41757633110751 31.39394905156405,47.76053760093191 C123.71374906199071,308.7494998150287 100.03815311155722,378.945213147661 63.748911052564836,434.45100066086525 c-17.01840317249298,26.063489309376564 -36.77977418365981,50.941802620887756 -49.92398517850643,78.6583055683841 s-19.22078552328685,59.51873877644539 -7.728356995355455,87.8174312157389 c11.402330469264712,28.06997287273407 38.5616998820492,49.11205798601759 67.98351892748542,63.92676589107168 c59.74460626635209,30.149230122566223 130.14073014259338,38.70537322972132 198.82500379270823,43.58123005286507 c151.9843584879054,10.801741769806199 304.7895814397816,6.123412461950295 457.17436683338747,1.4450837737613398 c56.40099043147393,-1.7361797589938277 113.04223853389885,-3.4931520706566346 168.53225164478135,-12.548317185467567 c30.803310200471515,-5.021406179027281 62.61771208561322,-13.005754335652227 84.98189617210119,-32.22848737239838 c28.390701432888818,-24.46246225813161 35.42831046395986,-65.8812648504886 16.40774221235006,-96.5607038267799 c-31.91451052098023,-51.45122239207876 -120.12990474700928,-64.2282551782373 -142.46405376050825,-119.44293208206909 c-12.283283218640918,-30.398740754593973 0.33035725118149273,-64.24904822663984 18.16964771110247,-92.44377542392067 c38.28139799299743,-60.46480066648428 102.44077810604904,-113.51705209274223 105.82443434020115,-182.63155863539032 c2.3225114249460432,-47.46944285503332 -28.52084132288951,-95.01165939654129 -76.21241098702649,-117.47803461551666 c-49.99406065076937,-23.53719143356102 -119.30901737007753,-20.57425143889759 -156.16887617111206,18.391030929986982 C711.1289527643967,115.01468335305435 644.3767763587894,130.47395592924477 587.1949465873113,128.3946986794126 z" fill="#c9d6e0" opacity="0.1" class="" fill-opacity="1" id="svg_145"/><ellipse cx="579.7899780273438" cy="726.5800170898438" rx="370.9800109863281" ry="27.579999923706055" fill="#6c63ff" opacity="0.1" id="svg_2" class=""/><ellipse cx="579.7899780273438" cy="726.5800170898438" rx="370.9800109863281" ry="27.579999923706055" fill="#6c63ff" opacity="0.1" class="" id="svg_146"/><ellipse cx="579.7899780273438" cy="726.5800170898438" rx="370.9800109863281" ry="27.579999923706055" fill="#d7e6f2" opacity="0.1" class="" id="svg_147" fill-opacity="1"/><ellipse cx="579.7899780273438" cy="726.5800170898438" rx="370.9800109863281" ry="27.579999923706055" fill="#d7e6f2" opacity="0.1" class="" fill-opacity="1" id="svg_148"/><ellipse cx="579.7899780273438" cy="726.5800170898438" rx="370.9800109863281" ry="27.579999923706055" fill="#d7e6f2" opacity="0.1" class="" fill-opacity="1" id="svg_149"/><ellipse cx="579.7899780273438" cy="726.5800170898438" rx="370.9800109863281" ry="27.579999923706055" fill="#d7e6f2" opacity="0.1" class="" fill-opacity="1" id="svg_150"/><ellipse cx="579.7899780273438" cy="726.5800170898438" rx="370.9800109863281" ry="27.579999923706055" fill="#d7e6f2" opacity="0.1" class="" fill-opacity="1" id="svg_151"/><ellipse cx="579.7899780273438" cy="726.5800170898438" rx="370.9800109863281" ry="27.579999923706055" fill="#d7e6f2" opacity="0.1" class="" fill-opacity="1" id="svg_152"/><ellipse cx="579.7899780273438" cy="726.5800170898438" rx="370.9800109863281" ry="27.579999923706055" fill="#d7e6f2" opacity="0.1" class="" fill-opacity="1" id="svg_153"/><ellipse cx="579.7899780273438" cy="726.5800170898438" rx="370.9800109863281" ry="27.579999923706055" fill="#d7e6f2" opacity="0.1" class="" fill-opacity="1" id="svg_154"/><ellipse cx="579.7899780273438" cy="726.5800170898438" rx="370.9800109863281" ry="27.579999923706055" fill="#d7e6f2" opacity="0.1" class="" fill-opacity="1" id="svg_155"/><ellipse cx="579.7899780273438" cy="726.5800170898438" rx="370.9800109863281" ry="27.579999923706055" fill="#d7e6f2" opacity="0.1" class="" fill-opacity="1" id="svg_156"/><ellipse cx="579.7899780273438" cy="726.5800170898438" rx="370.9800109863281" ry="27.579999923706055" fill="#d7e6f2" opacity="0.1" class="" fill-opacity="1" id="svg_157"/><ellipse cx="579.7899780273438" cy="726.5800170898438" rx="370.9800109863281" ry="27.579999923706055" fill="#d7e6f2" opacity="0.1" class="" fill-opacity="1" id="svg_158"/><ellipse cx="579.7899780273438" cy="726.5800170898438" rx="370.9800109863281" ry="27.579999923706055" fill="#d7e6f2" opacity="0.1" class="" fill-opacity="1" id="svg_159"/><ellipse cx="579.7899780273438" cy="726.5800170898438" rx="370.9800109863281" ry="27.579999923706055" fill="#d7e6f2" opacity="0.1" class="" fill-opacity="1" id="svg_160"/><ellipse cx="579.7899780273438" cy="726.5800170898438" rx="370.9800109863281" ry="27.579999923706055" fill="#d7e6f2" opacity="0.1" class="" fill-opacity="1" id="svg_161"/><ellipse cx="579.7899780273438" cy="726.5800170898438" rx="370.9800109863281" ry="27.579999923706055" fill="#d7e6f2" opacity="0.1" class="" fill-opacity="1" id="svg_162"/><ellipse cx="579.7899780273438" cy="726.5800170898438" rx="370.9800109863281" ry="27.579999923706055" fill="#d7e6f2" opacity="0.1" class="" fill-opacity="1" id="svg_163"/><ellipse cx="579.7899780273438" cy="726.5800170898438" rx="370.9800109863281" ry="27.579999923706055" fill="#d7e6f2" opacity="0.1" class="" fill-opacity="1" id="svg_164"/><ellipse cx="579.7899780273438" cy="726.5800170898438" rx="370.9800109863281" ry="27.579999923706055" fill="#d7e6f2" opacity="0.1" class="" fill-opacity="1" id="svg_165"/><ellipse cx="579.7899780273438" cy="726.5800170898438" rx="370.9800109863281" ry="27.579999923706055" fill="#dadada" opacity="1" class="" fill-opacity="1" id="svg_166"/><ellipse cx="579.7899780273438" cy="726.5800170898438" rx="370.9800109863281" ry="27.579999923706055" fill="#dadada" opacity="1" class="" fill-opacity="1" id="svg_176"/><path d="M292.3935543894768,635.6106557846069 s21,-3.359999895095825 33.599998474121094,11.489999771118164 c0,0 -9.239999771118164,7.28000020980835 -29.1200008392334,-2.799999952316284 z" fill="#69b0fc" id="svg_3" class="" fill-opacity="1"/><path d="M290.1335446238518,635.3406362533569 s-13.390000343322754,16.520000457763672 -6.820000171661377,34.849998474121094 c0,0 10.920000076293945,-4.380000114440918 12.109999656677246,-26.639999389648438 z" fill="#69b0fc" id="svg_4" class="" fill-opacity="1"/><path d="M278.679992377758,608.1706533432007 s8.399999618530273,-15.399999618530273 42,6.159999847412109 c0,0 -4.480000019073486,10.359999656677246 -19.31999969482422,9.520000457763672 S282.5799862742424,616.3406362533569 278.679992377758,608.1706533432007 z" fill="#69b0fc" id="svg_5" class="" fill-opacity="1"/><path d="M276.4899899363518,607.0606069564819 s-17.43000030517578,-2 -19.1200008392334,37.90999984741211 c0,0 11.050000190734863,2.2899999618530273 18.899999618530273,-10.329999923706055 S280.8800045847893,614.9406118392944 276.4899899363518,607.0606069564819 z" fill="#69b0fc" id="svg_6" class="" fill-opacity="1"/><path d="M266.3399960398674,575.2406606674194 s9.800000190734863,-27.15999984741211 45.36000061035156,-7.840000152587891 c0,0 -8.119999885559082,24.920000076293945 -41.720001220703125,17.079999923706055 z" fill="#69b0fc" id="svg_7" class="" fill-opacity="1"/><path d="M255.41000336408615,534.6406240463257 s18.489999771118164,-27.450000762939453 51.25,-2 c0,0 -11.479999542236328,25.760000228881836 -48.45000076293945,11.760000228881836 z" fill="#69b0fc" id="svg_8" class="" fill-opacity="1"/><path d="M251.48998993635178,495.4442434310913 s21.56999969482422,-25.200000762939453 54.04999923706055,0 c0,0 -20.440000534057617,22.1200008392334 -54.04999923706055,6.440000057220459 z" fill="#69b0fc" id="svg_9" class="" fill-opacity="1"/><path d="M248.13000458478928,457.9242238998413 s21.850000381469727,-26.31999969482422 52.93000030517578,-1.399999976158142 c0,0 -24.639999389648438,23.239999771118164 -52.93000030517578,7.559999942779541 z" fill="#69b0fc" id="svg_10" class="" fill-opacity="1"/><path d="M250.63644379377365,424.0577688217163 s23,-33.88999938964844 52.09000015258789,-10.920000076293945 c0,0 -24.639999389648438,29.1200008392334 -52.09000015258789,17.360000610351562 z" fill="#69b0fc" id="svg_11" class="" fill-opacity="1"/><path d="M255.41000336408615,384.5813283920288 s24.3700008392334,-33.599998474121094 52.650001525878906,-7.840000152587891 c0,0 -28.84000015258789,29.1299991607666 -52.650001525878906,14 z" fill="#69b0fc" id="svg_12" class="" fill-opacity="1"/><path d="M263.5399777293205,349.79131984710693 s28.84000015258789,-31.56999969482422 54,-19 c0,0 -30.059999465942383,33.529998779296875 -55.2599983215332,27.3700008392334 z" fill="#69b0fc" id="svg_13" class="" fill-opacity="1"/><path d="M273.62000274658203,320.0999946594238 s33.31999969482422,-38.63999938964844 52.63999938964844,-25.760000228881836 c0,0 -24.520000457763672,30 -55,33 z" fill="#69b0fc" id="svg_14" class="" fill-opacity="1" opacity="1"/><path d="M288.169982612133,278.5713186264038 s29.1299991607666,-31.579999923706055 50.40999984741211,-23.739999771118164 c0,0 -24.920000076293945,32.7599983215332 -54.31999969482422,33.599998474121094 z" fill="#69b0fc" id="svg_15" class="" fill-opacity="1"/><path d="M301.34000396728516,246.06999588012695 s32.20000076293945,-30.25 46.20000076293945,-24.93000030517578 c0,0 -23.239999771118164,33.61000061035156 -47.599998474121094,31.649999618530273 z" fill="#6c63ff" id="svg_16"/><path d="M314.22000885009766,212.97999954223633 s27.719999313354492,-36.119998931884766 42.84000015258789,-33.31999969482422 c0,0 -16.799999237060547,32.20000076293945 -42.84000015258789,37 z" fill="#6c63ff" id="svg_17"/><path d="M328.19998931884766,168.47999954223633 s24.5,-27.700000762939453 37.72999954223633,-27.6299991607666 c0,0 -19.34000015258789,37 -38.7400016784668,36.65999984741211 z" fill="#6c63ff" id="svg_18"/><path d="M336.47998809814453,138.81999588012695 l23.65999984741211,-57.689998626708984 s1.190000057220459,52.150001525878906 -26.670000076293945,68.38999938964844 z" fill="#6c63ff" id="svg_19"/><path d="M346.09000396728516,75.20000076293945 s3.9200000762939453,-48.15999984741211 1.399999976158142,-52.08000183105469 c0,0 16.920000076293945,40 -1.5700000524520874,73.36000061035156 z" fill="#69b0fc" id="svg_20" class="" fill-opacity="1"/><path d="M265.419982612133,574.5906362533569 s-24.540000915527344,-15.210000038146973 -40.43000030517578,22 c0,0 21.84000015258789,14.489999771118164 43.310001373291016,-12.510000228881836 z" fill="#69b0fc" id="svg_21" class="" fill-opacity="1"/><path d="M254.67999237775803,533.0906362533569 s-30.100000381469727,-13.729999542236328 -44.709999084472656,25.1200008392334 c0,0 23.260000228881836,16 47.45000076293945,-15.300000190734863 z" fill="#69b0fc" id="svg_22" class="" fill-opacity="1"/><path d="M250.0899960398674,497.7942190170288 s-21.559999465942383,-25.200000762939453 -54,0 c0,0 20.440000534057617,22.1200008392334 54,6.440000057220459 z" fill="#69b0fc" id="svg_23" class="" fill-opacity="1"/><path d="M250.0899960398674,497.7942190170288 s-21.559999465942383,-25.200000762939453 -54,0 c0,0 20.440000534057617,22.1200008392334 54,6.440000057220459 z" fill="#69b0fc" class="" fill-opacity="1" id="svg_177"/><path d="M247.39999359846115,457.9242238998413 s-21.84000015258789,-26.31999969482422 -52.93000030517578,-1.399999976158142 c0,0 24.649999618530273,23.239999771118164 52.93000030517578,7.559999942779541 z" fill="#69b0fc" id="svg_24" class="" fill-opacity="1"/><path d="M250.63644379377365,425.01776027679443 s-15.319999694824219,-38 -48.619998931884766,-21.6299991607666 c0,0 18,33.650001525878906 47.27000045776367,27.920000076293945 z" fill="#69b0fc" id="svg_25" class="" fill-opacity="1"/><path d="M257.3399960398674,384.39132595062256 s-15.220000267028809,-38.61000061035156 -49,-20.700000762939453 c0,0 20.68000030517578,35.38999938964844 47.5,26.670000076293945 z" fill="#69b0fc" id="svg_26" class="" fill-opacity="1"/><path d="M266.77999848127365,349.9913320541382 s-6,-42.33000183105469 -34,-46.119998931884766 c0,0 5.929999828338623,44.63999938964844 30.219999313354492,53.75 z" fill="#69b0fc" id="svg_27" class="" fill-opacity="1"/><path d="M274.3299862742424,316.89132595062256 s-2.3399999141693115,-51 -25.489999771118164,-52.77000045776367 c0,0 0.7799999713897705,38.709999084472656 22.8799991607666,60 z" fill="#69b0fc" id="svg_28" class="" fill-opacity="1"/><path d="M290.5700070261955,277.1113271713257 s-6.909999847412109,-42.40999984741211 -29,-47.599998474121094 c0,0 2.740000009536743,41.08000183105469 26.81999969482422,58 z" fill="#69b0fc" id="svg_29" class="" fill-opacity="1"/><path d="M303.9599911570549,243.09132289886475 s-0.23999999463558197,-44.16999816894531 -13.729999542236328,-50.66999816894531 c0,0 -8.380000114440918,40 9.819999694824219,56.310001373291016 z" fill="#69b0fc" id="svg_30" class="" fill-opacity="1"/><path d="M315.2499997019768,209.251296043396 s-1.8899999856948853,-45.4900016784668 -15.869999885559082,-51.900001525878906 c0,0 -4.789999961853027,36 13.770000457763672,54.880001068115234 z" fill="#69b0fc" id="svg_31" class="" fill-opacity="1"/><path d="M330.1500015258789,172.09999465942383 s-0.09000000357627869,-37 -10.0600004196167,-45.66999816894531 c0,0 -9.930000305175781,40.529998779296875 4.849999904632568,53.119998931884766 z" fill="#6c63ff" id="svg_32"/><path d="M335.2999954223633,136.97999954223633 l-9.699999809265137,-61.59000015258789 s-13.1899995803833,50.459999084472656 10.170000076293945,72.69000244140625 z" fill="#6c63ff" id="svg_33"/><path d="M337.19998931884766,75.78999710083008 s-24.920000076293945,-41.400001525878906 -24.40999984741211,-46 c0,0 2.6500000953674316,43.38999938964844 34,65 z" fill="#69b0fc" id="svg_34" class="" fill-opacity="1"/><path d="M340.12000274658203,63.560001373291016 S316.60001373291016,4.759998321533203 305.95999908447266,-0.020000457763671875 c0,0 33.599998474121094,17.079999923706055 36.119998931884766,61.880001068115234 z" fill="#69b0fc" id="svg_35" class="" fill-opacity="1"/><path d="M327.0600051879883,177.86000442504883 l-1.600000023841858,-0.5 c19.850000381469727,-64.72000122070312 24.799999237060547,-106 13.9399995803833,-116.33999633789062 l1.159999966621399,-1.2200000286102295 C352.0700149536133,70.72000503540039 347.4000015258789,111.53999710083008 327.0600051879883,177.86000442504883 z" fill="#444053" id="svg_36"/><path d="M272.4100112915039,329.3700141906738 l-2.380000114440918,-0.8399999737739563 c2.0999999046325684,-5.929999828338623 4.380000114440918,-11.949999809265137 6.760000228881836,-17.8799991607666 C297.5099868774414,258.9799995422363 315.1399917602539,210.97999954223633 326.44998931884766,174.0900001525879 l2.069999933242798,-1 C317.1900100708008,209.97999954223633 299.87000274658203,259.8799934387207 279.13001251220703,311.5899848937988 C276.7599868774414,317.4900093078613 274.50000762939453,323.4699897766113 272.4100112915039,329.3700141906738 z" fill="#444053" id="svg_37"/><path d="M322.48999786376953,685.6999702453613 c-0.3199999928474426,-0.36000001430511475 -32.5,-36.58000183105469 -54.91999816894531,-98.44000244140625 a364.4200134277344,364.4200134277344 0 0 1 -21.700000762939453,-112.7699966430664 c-1.5299999713897705,-48.130001068115234 8.5600004196167,-101.87999725341797 25.8700008392334,-150.69000244140625 l1.8799999952316284,2.200000047683716 C234.7800064086914,435.55998611450195 250.20999908447266,529.4499702453613 270.6800003051758,585.9799995422363 c22.190000534057617,61.290000915527344 54,97.12000274658203 54.310001373291016,97.4800033569336 z" fill="#444053" id="svg_38"/><path d="M181.7335507273674,676.1606435775757 s-38.04999923706055,-2.2899999618530273 -33.560001373291016,24.3700008392334 c0,0 -0.8899999856948853,4.710000038146973 3.380000114440918,6.849999904632568 c0,0 0.05999999865889549,-2 3.9000000953674316,-1.309999942779541 a17.510000228881836,17.510000228881836 0 0 0 4.130000114440918,0.20000000298023224 a8.619999885559082,8.619999885559082 0 0 0 5.059999942779541,-2.0799999237060547 h0 s10.6899995803833,-4.420000076293945 14.850000381469727,-21.899999618530273 c0,0 3.0799999237060547,-3.809999942779541 2.950000047683716,-4.789999961853027 l-6.420000076293945,2.740000009536743 s2.200000047683716,4.630000114440918 0.4699999988079071,8.479999542236328 c0,0 -0.20999999344348907,-8.3100004196167 -1.440000057220459,-8.119999885559082 c-0.25,0 -3.3399999141693115,1.6100000143051147 -3.3399999141693115,1.6100000143051147 s3.7799999713897705,8.069999694824219 0.9300000071525574,13.930000305175781 c0,0 1.0800000429153442,-9.9399995803833 -2.0999999046325684,-13.350000381469727 l-4.519999980926514,2.640000104904175 s4.409999847412109,8.329999923706055 1.4199999570846558,15.130000114440918 c0,0 0.7599999904632568,-10.430000305175781 -2.369999885559082,-14.489999771118164 l-4.099999904632568,3.200000047683716 s4.139999866485596,8.210000038146973 1.6200000047683716,13.850000381469727 c0,0 -0.33000001311302185,-12.140000343322754 -2.509999990463257,-13.0600004196167 c0,0 -3.5799999237060547,3.1600000858306885 -4.130000114440918,4.460000038146973 c0,0 2.8399999141693115,6 1.0800000429153442,9.109999656677246 c0,0 -1.0800000429153442,-8.09000015258789 -2,-8.130000114440918 c0,0 -3.569999933242798,5.360000133514404 -3.940000057220459,9 a19.459999084472656,19.459999084472656 0 0 1 3.069999933242798,-9.539999961853027 a10.710000038146973,10.710000038146973 0 0 0 -5.460000038146973,2.8299999237060547 s0.550000011920929,-3.7899999618530273 6.340000152587891,-4.119999885559082 c0,0 3,-4.070000171661377 3.740000009536743,-4.320000171661377 c0,0 -5.760000228881836,-0.47999998927116394 -9.25,1.0700000524520874 c0,0 3.069999933242798,-3.569999933242798 10.3100004196167,-2 l4,-3.299999952316284 s-7.579999923706055,-1 -10.800000190734863,0.10999999940395355 c0,0 3.700000047683716,-3.1600000858306885 11.890000343322754,-0.8600000143051147 l4.400000095367432,-2.630000114440918 s-6.460000038146973,-1.3899999856948853 -10.319999694824219,-0.8899999856948853 c0,0 4.070000171661377,-2.190000057220459 11.609999656677246,0.18000000715255737 l3.1500000953674316,-1.409999966621399 s-4.739999771118164,-0.9300000071525574 -6.119999885559082,-1.0800000429153442 s-1.4700000286102295,-0.5299999713897705 -1.4700000286102295,-0.5299999713897705 a16.389999389648438,16.389999389648438 0 0 1 8.899999618530273,1 S181.8435360789299,676.5806264877319 181.7335507273674,676.1606435775757 z" fill="#69b0fc" id="svg_39" class="" fill-opacity="1"/><path d="M71.68000030517578,690.1700019836426 s-38,-2.2899999618530273 -33.54999923706055,24.3700008392334 c0,0 -0.8999999761581421,4.710000038146973 3.369999885559082,6.849999904632568 c0,0 0.07000000029802322,-2 3.9100000858306885,-1.309999942779541 a17,17 0 0 0 4.130000114440918,0.20000000298023224 a8.5600004196167,8.5600004196167 0 0 0 5.050000190734863,-2.0799999237060547 h0 s10.699999809265137,-4.420000076293945 14.859999656677246,-21.899999618530273 c0,0 3.069999933242798,-3.809999942779541 3,-4.789999961853027 l-6.420000076293945,2.740000009536743 s2.200000047683716,4.630000114440918 0.4699999988079071,8.479999542236328 c0,0 -0.20999999344348907,-8.3100004196167 -1.440000057220459,-8.119999885559082 c-0.25,0 -3.3399999141693115,1.6100000143051147 -3.3399999141693115,1.6100000143051147 s3.7799999713897705,8.069999694824219 0.9300000071525574,13.930000305175781 c0,0 1.0800000429153442,-9.9399995803833 -2.109999895095825,-13.350000381469727 l-4.519999980926514,2.640000104904175 s4.409999847412109,8.329999923706055 1.4199999570846558,15.130000114440918 c0,0 0.7699999809265137,-10.430000305175781 -2.369999885559082,-14.489999771118164 l-4.090000152587891,3.200000047683716 s4.139999866485596,8.210000038146973 1.6200000047683716,13.850000381469727 c0,0 -0.33000001311302185,-12.140000343322754 -2.509999990463257,-13.0600004196167 c0,0 -3.5799999237060547,3.1600000858306885 -4.130000114440918,4.460000038146973 c0,0 2.8399999141693115,6 1.0800000429153442,9.109999656677246 c0,0 -1.0800000429153442,-8.09000015258789 -2,-8.130000114440918 c0,0 -3.559999942779541,5.360000133514404 -3.940000057220459,9 a19.520000457763672,19.520000457763672 0 0 1 3.0799999237060547,-9.539999961853027 a10.760000228881836,10.760000228881836 0 0 0 -5.46999979019165,2.8299999237060547 s0.5600000023841858,-3.7899999618530273 6.349999904632568,-4.119999885559082 c0,0 3,-4.070000171661377 3.740000009536743,-4.309999942779541 c0,0 -5.760000228881836,-0.49000000953674316 -9.25,1.059999942779541 c0,0 3.069999933242798,-3.569999933242798 10.3100004196167,-2 l4,-3.299999952316284 s-7.579999923706055,-1 -10.800000190734863,0.10999999940395355 c0,0 3.700000047683716,-3.1600000858306885 11.890000343322754,-0.8600000143051147 l4.400000095367432,-2.630000114440918 s-6.46999979019165,-1.3899999856948853 -10.319999694824219,-0.8899999856948853 c0,0 4.070000171661377,-2.190000057220459 11.609999656677246,0.18000000715255737 l3.1500000953674316,-1.409999966621399 s-4.739999771118164,-0.9300000071525574 -6.130000114440918,-1.0800000429153442 s-1.4600000381469727,-0.5299999713897705 -1.4600000381469727,-0.5299999713897705 a16.510000228881836,16.510000228881836 0 0 1 8.899999618530273,1 S71.76000213623047,690.5899848937988 71.68000030517578,690.1700019836426 z" fill="#69b0fc" id="svg_40" class="" fill-opacity="1"/><path d="M132.77355927228928,717.5706167221069 s-38,-2.2899999618530273 -33.560001373291016,24.3700008392334 c0,0 -0.8899999856948853,4.710000038146973 3.380000114440918,6.849999904632568 c0,0 0.07000000029802322,-2 3.9000000953674316,-1.309999942779541 a17.56999969482422,17.56999969482422 0 0 0 4.139999866485596,0.20000000298023224 a8.619999885559082,8.619999885559082 0 0 0 5.050000190734863,-2.0799999237060547 h0 s10.6899995803833,-4.420000076293945 14.850000381469727,-21.899999618530273 c0,0 3.0799999237060547,-3.809999942779541 3,-4.789999961853027 l-6.420000076293945,2.740000009536743 s2.190000057220459,4.630000114440918 0.4699999988079071,8.479999542236328 c0,0 -0.20999999344348907,-8.3100004196167 -1.4500000476837158,-8.119999885559082 c-0.25,0 -3.3299999237060547,1.6100000143051147 -3.3299999237060547,1.6100000143051147 s3.7699999809265137,8.0600004196167 0.9200000166893005,13.930000305175781 c0,0 1.0800000429153442,-9.9399995803833 -2.0999999046325684,-13.350000381469727 l-4.519999980926514,2.640000104904175 s4.409999847412109,8.329999923706055 1.4199999570846558,15.130000114440918 c0,0 0.7699999809265137,-10.430000305175781 -2.369999885559082,-14.489999771118164 l-4.099999904632568,3.200000047683716 s4.150000095367432,8.210000038146973 1.6200000047683716,13.850000381469727 c0,0 -0.33000001311302185,-12.140000343322754 -2.5,-13.0600004196167 c0,0 -3.5899999141693115,3.1600000858306885 -4.130000114440918,4.460000038146973 c0,0 2.8399999141693115,6 1.0700000524520874,9.109999656677246 c0,0 -1.0800000429153442,-8.09000015258789 -2,-8.130000114440918 c0,0 -3.569999933242798,5.360000133514404 -3.940000057220459,9 a19.459999084472656,19.459999084472656 0 0 1 3.069999933242798,-9.539999961853027 a10.710000038146973,10.710000038146973 0 0 0 -5.460000038146973,2.8299999237060547 s0.550000011920929,-3.7899999618530273 6.349999904632568,-4.119999885559082 c0,0 2.940000057220459,-4.070000171661377 3.7300000190734863,-4.320000171661377 c0,0 -5.760000228881836,-0.47999998927116394 -9.25,1.0700000524520874 c0,0 3.0799999237060547,-3.569999933242798 10.3100004196167,-1.9500000476837158 l4,-3.299999952316284 s-7.579999923706055,-1 -10.800000190734863,0.10999999940395355 c0,0 3.7100000381469727,-3.1600000858306885 11.890000343322754,-0.8600000143051147 l4.409999847412109,-2.630000114440918 S113.99355286359787,721.8406362533569 110.13355225324631,722.3406362533569 c0,0 4.059999942779541,-2.190000057220459 11.609999656677246,0.18000000715255737 l3.140000104904175,-1.409999966621399 s-4.730000019073486,-0.9300000071525574 -6.119999885559082,-1.0800000429153442 s-1.4600000381469727,-0.5299999713897705 -1.4600000381469727,-0.5299999713897705 a16.389999389648438,16.389999389648438 0 0 1 8.899999618530273,1 S132.88354462385178,717.9906606674194 132.77355927228928,717.5706167221069 z" fill="#69b0fc" id="svg_41" class="" fill-opacity="1"/><ellipse cx="103.66000366210938" cy="753.22998046875" rx="26.93000030517578" ry="4.550000190734863" fill="#6c63ff" opacity="0.1" id="svg_42" class=""/><ellipse cx="103.66000366210938" cy="753.22998046875" rx="26.93000030517578" ry="4.550000190734863" fill="#6c63ff" opacity="0.1" class="" id="svg_170"/><ellipse cx="103.66000366210938" cy="753.22998046875" rx="26.93000030517578" ry="4.550000190734863" fill="#d7e6f2" opacity="1" class="" id="svg_175" fill-opacity="1"/><ellipse cx="957.8400268554688" cy="753.22998046875" rx="26.93000030517578" ry="4.550000190734863" fill="#990098" opacity="1" id="svg_43" class="" fill-opacity="1"/><ellipse cx="957.8400268554688" cy="753.22998046875" rx="26.93000030517578" ry="4.550000190734863" fill="#d7e6f2" opacity="1" class="selected" fill-opacity="1" id="svg_173" stroke="none" stroke-width="2"/><ellipse cx="699.9500122070312" cy="779.4199829101562" rx="26.93000030517578" ry="4.550000190734863" fill="#6c63ff" opacity="0.1" id="svg_44" class=""/><ellipse cx="699.9500122070312" cy="779.4199829101562" rx="26.93000030517578" ry="4.550000190734863" fill="#b6b6b6" opacity="0.1" class="" id="svg_139" fill-opacity="1"/><ellipse cx="699.9500122070312" cy="779.4199829101562" rx="26.93000030517578" ry="4.550000190734863" fill="#b6b6b6" opacity="0.1" class="" fill-opacity="1" id="svg_167"/><ellipse cx="699.9500122070312" cy="779.4199829101562" rx="26.93000030517578" ry="4.550000190734863" fill="#b6b6b6" opacity="0.1" class="" fill-opacity="1" id="svg_169"/><ellipse cx="699.9500122070312" cy="779.4199829101562" rx="26.93000030517578" ry="4.550000190734863" fill="#d7e6f2" opacity="0.85" class="" fill-opacity="1" id="svg_174"/><ellipse cx="1000.4299926757812" cy="713.7899780273438" rx="26.93000030517578" ry="4.550000190734863" fill="#d7e6f2" opacity="0.1" id="svg_45" class="" fill-opacity="1"/><ellipse cx="156.07000732421875" cy="710.9500122070312" rx="26.93000030517578" ry="4.550000190734863" fill="#6c63ff" opacity="0.1" id="svg_46" class=""/><ellipse cx="156.07000732421875" cy="710.9500122070312" rx="26.93000030517578" ry="4.550000190734863" fill="#6c63ff" opacity="0.1" class="" id="svg_168"/><ellipse cx="156.07000732421875" cy="710.9500122070312" rx="26.93000030517578" ry="4.550000190734863" fill="#d7e6f2" opacity="1" class="" id="svg_172" fill-opacity="1"/><ellipse cx="45.439998626708984" cy="723.719970703125" rx="26.93000030517578" ry="4.550000190734863" fill="#6c63ff" opacity="0.1" id="svg_47" class=""/><ellipse cx="45.439998626708984" cy="723.719970703125" rx="26.93000030517578" ry="4.550000190734863" fill="#d7e6f2" opacity="1" class="" id="svg_171" fill-opacity="1"/><rect x="302.739990234375" y="79.73999786376953" width="431.3500061035156" height="641.3800048828125" rx="9.800000190734863" ry="9.800000190734863" fill="#c9d6df" id="svg_48" class="" fill-opacity="1"/><rect x="342.2200012207031" y="134.8699951171875" width="357.7300109863281" height="126.08999633789062" rx="29.209999084472656" ry="29.209999084472656" opacity="0.1" id="svg_49"/><rect x="344.5199890136719" y="137.3300018310547" width="352.30999755859375" height="121.94999694824219" rx="10.199999809265137" ry="10.199999809265137" fill="#e6e8ec" id="svg_50"/><rect x="354.67999267578125" y="313.4800109863281" width="71.13999938964844" height="79.04000091552734" rx="10.789999961853027" ry="10.789999961853027" opacity="0.1" id="svg_51"/><rect x="441.6300048828125" y="313.4800109863281" width="71.13999938964844" height="79.04000091552734" rx="10.789999961853027" ry="10.789999961853027" opacity="0.1" id="svg_52"/><rect x="528.5800170898438" y="313.4800109863281" width="71.13999938964844" height="79.04000091552734" rx="10.789999961853027" ry="10.789999961853027" opacity="0.1" id="svg_53"/><rect x="615.530029296875" y="315.1600036621094" width="71.13999938964844" height="79.04000091552734" rx="28.84000015258789" ry="28.84000015258789" opacity="0.1" id="svg_54"/><rect x="615.530029296875" y="313.4800109863281" width="71.13999938964844" height="79.04000091552734" rx="10.789999961853027" ry="10.789999961853027" fill="#69b0fc" id="svg_55" class="" fill-opacity="1" opacity="1"/><rect x="354.67999267578125" y="400.42999267578125" width="71.13999938964844" height="79.04000091552734" rx="10.789999961853027" ry="10.789999961853027" opacity="0.1" id="svg_56"/><rect x="441.6300048828125" y="400.42999267578125" width="71.13999938964844" height="79.04000091552734" rx="10.789999961853027" ry="10.789999961853027" opacity="0.1" id="svg_57"/><rect x="528.5800170898438" y="400.42999267578125" width="71.13999938964844" height="79.04000091552734" rx="10.789999961853027" ry="10.789999961853027" opacity="0.1" id="svg_58"/><rect x="354.67999267578125" y="496.4100036621094" width="71.13999938964844" height="79.04000091552734" rx="10.789999961853027" ry="10.789999961853027" opacity="0.1" id="svg_59"/><rect x="441.6300048828125" y="496.4100036621094" width="71.13999938964844" height="79.04000091552734" rx="10.789999961853027" ry="10.789999961853027" opacity="0.1" id="svg_60"/><rect x="528.5800170898438" y="496.4100036621094" width="71.13999938964844" height="79.04000091552734" rx="10.789999961853027" ry="10.789999961853027" opacity="0.1" id="svg_61"/><rect x="528.5800170898438" y="592.3900146484375" width="71.13999938964844" height="79.04000091552734" rx="10.789999961853027" ry="10.789999961853027" opacity="0.1" id="svg_62"/><rect x="615.530029296875" y="402.1099853515625" width="71.13999938964844" height="79.04000091552734" rx="28.84000015258789" ry="28.84000015258789" opacity="0.1" id="svg_63"/><rect x="615.530029296875" y="400.42999267578125" width="71.13999938964844" height="79.04000091552734" rx="11.300000190734863" ry="11.300000190734863" fill="#6c63ff" id="svg_64"/><rect x="615.530029296875" y="400.42999267578125" width="71.13999938964844" height="79.04000091552734" rx="11.300000190734863" ry="11.300000190734863" opacity="0.2" id="svg_65" class="" fill-opacity="1" fill="#007aff"/><rect x="354.67999267578125" y="592.3900146484375" width="158.08999633789062" height="79.04000091552734" rx="10.039999961853027" ry="10.039999961853027" opacity="0.1" id="svg_66"/><rect x="608.75" y="496.4100036621094" width="77.91000366210938" height="175.02999877929688" rx="11.65999984741211" ry="11.65999984741211" opacity="0.1" id="svg_67"/><rect x="649.8699951171875" y="237.97999572753906" width="31.139999389648438" height="3.369999885559082" fill="#69b0fc" id="svg_68" class="" fill-opacity="1"/><rect x="604.280029296875" y="237.97999572753906" width="31.139999389648438" height="3.369999885559082" fill="#69b0fc" id="svg_69" class="" fill-opacity="1"/><rect x="558.6799926757812" y="237.97999572753906" width="31.139999389648438" height="3.369999885559082" fill="#69b0fc" id="svg_70" class="" fill-opacity="1"/><rect x="513.0900268554688" y="237.97999572753906" width="31.139999389648438" height="3.369999885559082" fill="#69b0fc" id="svg_71" class="" fill-opacity="1"/><path d="M966.19,532.56c3.21-10.8,0-21.6,0-21.6V500.77s3.67-19.92-12.71-32.7l-10.86-9.58s-6.09-5.23-7.86-5.56a8,8,0,0,0-1-.15l-.32-.19a32.69,32.69,0,0,1-2.38-5,4.63,4.63,0,0,0,3.87-1.32,5,5,0,0,0,.91-1.53h0c.63-1.41.74-3.12,1.27-4.62a11,11,0,0,1,2-3.32c-.11.18-.23.35-.33.54,1.54-1.92,3.55-3.56,5-5.58a12.51,12.51,0,0,0,.79-1.25c-.06.09-.14.17-.21.26,2-3.21,2.61-7.1,3.19-10.85a9.76,9.76,0,0,0,.06-3.88,14.13,14.13,0,0,0-1.08-2.46c-2.36-4.87-2.32-11-6.09-14.89-2.84-2.91-7.14-3.8-11.19-4.3s-8.31-.79-11.79-2.91a12.44,12.44,0,0,0-3.19-1.75,2.62,2.62,0,0,0-3.13,1.16,2.06,2.06,0,0,1-.42.85,1.36,1.36,0,0,1-1.2.07l-5.39-1.44.06.27-.14,0,.2.85a.46.46,0,0,1,.51.29l-.87,1.34a13.51,13.51,0,0,1-4.86-1,1.13,1.13,0,0,0,0,.26l-.08,0c-.1,1.52,1.63,2.51,2.16,3.94a3,3,0,0,1,0,1.93,4.23,4.23,0,0,1-1,1.54c-1.91,1.89-4.36,1.52-6.56,2.71a1.42,1.42,0,0,0-.8.89.65.65,0,0,0-.07.49,1.16,1.16,0,0,0,.45.56,10,10,0,0,0,2.09,1.3c-.22.2-.43.4-.63.61a24.1,24.1,0,0,0,8.33,39.32c.08.42.14.85.2,1.3,0,.05,0,.08,0,.13l.06.58-7.26,3.09a5.78,5.78,0,0,1-5.2-3.35c-1.69-3.49-7.66,0-7.66,0s-18.21-1.36-25,2c0,0-10.87-4.56-12.4-4.87s-3.82-1.52-4.89-1.21-2.45-2-3.22-1.83-1.07-1.52-3.52-2.13-3.37.16-6.12-2.58-25.11-13.54-25.11-13.54L792.76,415l-10.71-8.52-.19.35c-.07-.25-.14-.51-.21-.79a102.59,102.59,0,0,0-4-12.49c-.69-1.65-1-3.73-1.93-2.63-.57.66-1.54-.79-3-1.77a2.53,2.53,0,0,0-3.77,1.1h0c-8.34,13.08-11.33,14-6.5,18.81,4.31,4.27,7.17,8,10.68,9.18l.42.13a.45.45,0,0,1-.23,0l20.36,24.34s14.69,12.78,24.8,16.88,9.33,5.33,9.33,5.33,30.62,15.51,35.36,15.21,3.83,31.79,1.84,37-5.2,42.59-5.2,42.59-3.07,7.91.15,13.38c0,0,.71,10.48.07,13-2.79,4.3-6.77,11.6-7.42,19.11,0,.4-.08.77-.12,1.16a2.7,2.7,0,0,1-.72.59l.68-.2a38.5,38.5,0,0,1-2,9.18A37.31,37.31,0,0,0,847.92,629v24.16l-2,15s-2.45,11.35,0,14a6.48,6.48,0,0,1,1.34,4.66,8.68,8.68,0,0,0,1.56,5.44,4.07,4.07,0,0,1,1,3.49c-.81,2.63,1.2,30.62,1.2,30.62s-.59,7.71-1.4,8.12,1.4,8.92,1.4,8.92-8.27,6.9-6.16,10.55l2.11,3.24-.56.55-.34.35a3.26,3.26,0,0,0-2.11-.4,80.62,80.62,0,0,1-8.32,7.41c-3.73,2.69-13.88,6.59-13.88,6.59l-8,.65h-.15s-3.83-.36-1.68,5.57,21.37,4.11,21.37,4.11l11.22-1.77s20,.1,25.73-1.17c2.39-.53,3-1.81,2.8-3.1l0,0-.06-.06a8,8,0,0,0-1.64-3.35,1.28,1.28,0,0,0-.14-.18l.36-4.1c8.49-4.89-2.4-14.51-2.4-14.51s3.73-8.11,5.64-10.74,1.91-41.38,1.91-41.38,1-14-1.63-17.24a5.83,5.83,0,0,1,2.86-5.27c1.89-1.29,7.6-19.06,12.08-33.81l2.82,17.38s-.61,8.32,1.22,10.75a4.14,4.14,0,0,1,.76,3.24,14.6,14.6,0,0,0,.41,7,4.63,4.63,0,0,0,1.49,2.5c1.63.81,1.73,3.7,2.34,4.31s4.39-.86,4.59,1.37a50.49,50.49,0,0,1,0,5.88l1.23,36.1s-2,3-2.45,11c-.17,3.41-.81,5.35-1.47,6.46a3.31,3.31,0,0,0,.3,3.88l.35.41-1.51,1.16a3.33,3.33,0,0,0-.94,4.11,3.23,3.23,0,0,0-.93,3.5,2.44,2.44,0,0,0,.26.57,5.68,5.68,0,0,0-3.05,1.51,25,25,0,0,1-5.39,5.42,103.71,103.71,0,0,0-8.59,7.36,12.34,12.34,0,0,1-5,4,8.25,8.25,0,0,1-1.51.45c-4,.82-2.75,5,.51,5.69s14.08,4,22.5,2.07c0,0,2.5,1,6.17-.86S916,786.47,916,786.47s4.59,0,5.21-1.82a7.14,7.14,0,0,0,.26-1.78l.13-.13-.12-.11a24.26,24.26,0,0,0-.31-4.07c-.12-.7-.25-1.32-.37-1.82-.39-1.52-1.12-3.49-1.43-4.32a1.53,1.53,0,0,0,.14-.21c1.75-3-1.16-10.12-1.16-10.12A19.4,19.4,0,0,1,921.8,758c1.63-1.22,5.92-32.86,5.92-32.86s-.21-8.11,2-11.76-3.06-25.75-3.06-25.75-2.25-5.07-1.43-6.9-.82-8.52-.82-8.52v-8a8.84,8.84,0,0,0-.47-2.8c-.63-1.88-1.56-5.49-.55-8.08,1.43-3.65,4.69-26.16,4.69-26.16s-2.55-9.93,1.19-17.84a15.54,15.54,0,0,1,1-1.83c2.77-4.35,1.94-12.08.57-18.31-.2-1-.43-1.9-.66-2.77-.09-.38-.19-.74-.29-1.1l.44-.18s0-.59.14-1.6a11.24,11.24,0,0,0,7.36-5.09s9.34-10.5,17.6-14.91,8.88-10.8,8.88-10.8c-1.22-2.13,2.19-10.8,2.19-10.8Zm-32.55-79.63h0Zm5.61,93.63-8.84,10.25,0-.06c-2.3-3.2,2.14-10.35,2.14-10.35L939.9,530c-.06,2.1-.32,4-1,4.83-2,2.74,3.68,7.31,3.68,7.31C939.55,542.15,939.25,546.56,939.25,546.56Z" transform="translate(-86.32 -58.02)" fill="url(#4f43e098-a778-42ef-b33c-7c47f8946c90)" id="svg_72"/><path d="M697.2899856567383,354.1500129699707 l-4.829999923706055,9.369999885559082 a19,19 0 0 1 -4.489999771118164,-0.9399999976158142 a17,17 0 0 1 -10.550000190734863,-9.119999885559082 c-4.309999942779541,-9.520000457763672 2.819999933242798,-15.670000076293945 6.139999866485596,-17.489999771118164 s6.409999847412109,-3.890000104904175 8.899999618530273,2.0799999237060547 a103.26000213623047,103.26000213623047 0 0 1 3.9100000858306885,12.40999984741211 C696.9500198364258,352.6500129699707 697.2899856567383,354.1500129699707 697.2899856567383,354.1500129699707 z" fill="#cc818c" id="svg_73"/><path d="M850.6800003051758,402.8900032043457 l-7.710000038146973,11.479999542236328 s-36.43000030517578,17.3799991607666 -29.469999313354492,-3 c3.059999942779541,-9 3.4200000762939453,-15.569999694824219 2.869999885559082,-20.1200008392334 c0,-0.05000000074505806 0,-0.07999999821186066 0,-0.12999999523162842 c-0.7200000286102295,-5.690000057220459 -2.859999895095825,-8.15999984741211 -2.859999895095825,-8.15999984741211 s35.5099983215332,-18.18000030517578 30.219999313354492,-5.75 a17.1200008392334,17.1200008392334 0 0 0 -1.25,8.180000305175781 a27.8799991607666,27.8799991607666 0 0 0 3.819999933242798,11.350000381469727 A37.709999084472656,37.709999084472656 0 0 0 850.6800003051758,402.8900032043457 z" fill="#cc818c" id="svg_74"/><path d="M839.589973449707,630.3000068664551 s5.239999771118164,22 3,25.59000015258789 s-2,11.6899995803833 -2,11.6899995803833 s-4.230000019073486,31.440000534057617 -5.840000152587891,32.63999938964844 a19.209999084472656,19.209999084472656 0 0 0 -3.430000066757202,4 s2.880000114440918,7.119999885559082 1.149999976158142,10.0600004196167 a2.440000057220459,2.440000057220459 0 0 1 -1.149999976158142,1 c-2.700000047683716,1.1399999856948853 -12.680000305175781,-3.9200000762939453 -18.360000610351562,-7 a3.240000009536743,3.240000009536743 0 0 1 -0.5799999833106995,-5.28000020980835 a3.299999952316284,3.299999952316284 0 0 1 0.9200000166893005,-4.079999923706055 l1.5,-1.159999966621399 l-0.3499999940395355,-0.4099999964237213 a3.309999942779541,3.309999942779541 0 0 1 -0.30000001192092896,-3.859999895095825 c0.6499999761581421,-1.090000033378601 1.2799999713897705,-3 1.4500000476837158,-6.409999847412109 c0.4099999964237213,-7.860000133514404 2.4200000762939453,-10.880000114440918 2.4200000762939453,-10.880000114440918 l-1.2100000381469727,-35.880001068115234 a49.779998779296875,49.779998779296875 0 0 0 0,-5.840000152587891 c-0.20000000298023224,-2.2100000381469727 -3.930000066757202,-0.75 -4.53000020980835,-1.3600000143051147 s-0.7099999785423279,-3.4700000286102295 -2.319999933242798,-4.28000020980835 a4.590000152587891,4.590000152587891 0 0 1 -1.4600000381469727,-2.490000009536743 a14.390000343322754,14.390000343322754 0 0 1 -0.4099999964237213,-7 a4.130000114440918,4.130000114440918 0 0 0 -0.75,-3.2200000286102295 c-1.809999942779541,-2.4200000762939453 -1.2100000381469727,-10.670000076293945 -1.2100000381469727,-10.670000076293945 l-2.7799999713897705,-17.280000686645508 c-4.429999828338623,14.65999984741211 -10.0600004196167,32.31999969482422 -11.930000305175781,33.599998474121094 a5.809999942779541,5.809999942779541 0 0 0 -2.819999933242798,5.230000019073486 c2.619999885559082,3.2300000190734863 1.6100000143051147,17.139999389648438 1.6100000143051147,17.139999389648438 s0,38.47999954223633 -1.8899999856948853,41.11000061035156 S782.7700271606445,695.9799995422363 782.7700271606445,695.9799995422363 s10.800000190734863,9.609999656677246 2.299999952316284,14.460000038146973 l-0.09000000357627869,0 c-8.670000076293945,4.840000152587891 -26.600000381469727,-8.65999984741211 -26.600000381469727,-8.65999984741211 l1.8700000047683716,-1.8700000047683716 l0.550000011920929,-0.550000011920929 L758.6800003051758,696.1999702453613 c-2.0799999237060547,-3.630000114440918 6.079999923706055,-10.479999542236328 6.079999923706055,-10.479999542236328 s-2.180000066757202,-8.470000267028809 -1.3799999952316284,-8.869999885559082 s1.3799999952316284,-8.0600004196167 1.3799999952316284,-8.0600004196167 s-2,-27.809999465942383 -1.1799999475479126,-30.43000030517578 a4.099999904632568,4.099999904632568 0 0 0 -1,-3.4700000286102295 a8.630000114440918,8.630000114440918 0 0 1 -1.5399999618530273,-5.400000095367432 a6.420000076293945,6.420000076293945 0 0 0 -1.3300000429153442,-4.630000114440918 c-2.4200000762939453,-2.619999885559082 0,-13.899999618530273 0,-13.899999618530273 l2,-14.920000076293945 V572.3499946594238 A37.77000045776367,37.77000045776367 0 0 1 764.2399978637695,558.9799995422363 a40,40 0 0 0 2.200000047683716,-10.729999542236328 c0.6600000262260437,-7.639999866485596 4.769999980926514,-15.0600004196167 7.53000020980835,-19.290000915527344 c1.4600000381469727,-2.240000009536743 2.549999952316284,-3.5799999237060547 2.549999952316284,-3.5799999237060547 l64.4800033569336,-2.5199999809265137 s1,2.869999885559082 2.0799999237060547,6.860000133514404 c0.2199999988079071,0.8700000047683716 0.4399999976158142,1.7899999618530273 0.6499999761581421,2.75 c1.350000023841858,6.199999809265137 2.1600000858306885,13.880000114440918 -0.5699999928474426,18.200000762939453 a16.93000030517578,16.93000030517578 0 0 0 -1,1.8200000524520874 c-3.690000057220459,7.860000133514404 -1.1699999570846558,17.729999542236328 -1.1699999570846558,17.729999542236328 s-3.2200000286102295,22.360000610351562 -4.630000114440918,26 c-1,2.569999933242798 -0.07999999821186066,6.159999847412109 0.550000011920929,8 a9.100000381469727,9.100000381469727 0 0 1 0.44999998807907104,2.7899999618530273 V614.9799995422363 s1.6200000047683716,6.650000095367432 0.8100000023841858,8.470000267028809 S839.589973449707,630.3000068664551 839.589973449707,630.3000068664551 z" fill="#444053" id="svg_75"/><path d="M842.5600051879883,551.3100166320801 a15.300000190734863,15.300000190734863 0 0 0 -1,1.809999942779541 l-3.630000114440918,-0.20000000298023224 c0.3499999940395355,-1.8700000047683716 -2.119999885559082,-19.399999618530273 -2.119999885559082,-19.399999618530273 l7.309999942779541,-0.4099999964237213 C844.4699783325195,539.3000068664551 845.2899856567383,546.9799995422363 842.5600051879883,551.3100166320801 z" opacity="0.1" id="svg_76"/><path d="M843.1599807739258,550.6999702453613 a16.93000030517578,16.93000030517578 0 0 0 -1,1.8200000524520874 l-3.630000114440918,-0.20999999344348907 c0.3499999940395355,-1.8600000143051147 -2.119999885559082,-19.399999618530273 -2.119999885559082,-19.399999618530273 l7.309999942779541,-0.4099999964237213 C845.0800247192383,538.6999702453613 845.890022277832,546.3800239562988 843.1599807739258,550.6999702453613 z" fill="#444053" id="svg_77"/><path d="M843.1599807739258,550.6999702453613 a16.93000030517578,16.93000030517578 0 0 0 -1,1.8200000524520874 l-3.630000114440918,-0.20999999344348907 c0.3499999940395355,-1.8600000143051147 -2.119999885559082,-19.399999618530273 -2.119999885559082,-19.399999618530273 l7.309999942779541,-0.4099999964237213 C845.0800247192383,538.6999702453613 845.890022277832,546.3800239562988 843.1599807739258,550.6999702453613 z" opacity="0.05" id="svg_78"/><path d="M832.4799880981445,714.3200263977051 a2.440000057220459,2.440000057220459 0 0 1 -1.149999976158142,1 c-2.700000047683716,1.1399999856948853 -12.680000305175781,-3.9200000762939453 -18.360000610351562,-7 a3.2699999809265137,3.2699999809265137 0 0 1 -1.5099999904632568,-1.7999999523162842 c3.240000009536743,-0.5899999737739563 5.360000133514404,3 5.360000133514404,3 a4.78000020980835,4.78000020980835 0 0 1 6.650000095367432,1.6100000143051147 c2.7699999809265137,4.079999923706055 8.710000038146973,2.359999895095825 8.710000038146973,2.359999895095825 z" opacity="0.1" id="svg_79"/><path d="M834.1499710083008,726.6700019836426 c-0.6000000238418579,1.8200000524520874 -5.139999866485596,1.8200000524520874 -5.139999866485596,1.8200000524520874 s-8.109999656677246,2.319999933242798 -11.739999771118164,4.130000114440918 s-6.090000152587891,0.8600000143051147 -6.090000152587891,0.8600000143051147 c-8.3100004196167,1.909999966621399 -19,-1.409999966621399 -22.219999313354492,-2.069999933242798 s-4.480000019073486,-4.829999923706055 -0.5,-5.639999866485596 a8.0600004196167,8.0600004196167 0 0 0 1.4900000095367432,-0.46000000834465027 a12.15999984741211,12.15999984741211 0 0 0 5,-4 a102.2699966430664,102.2699966430664 0 0 1 8.489999771118164,-7.309999942779541 a24.81999969482422,24.81999969482422 0 0 0 5.320000171661377,-5.389999866485596 c4.739999771118164,-4.179999828338623 8.109999656677246,1.559999942779541 8.109999656677246,1.559999942779541 a4.78000020980835,4.78000020980835 0 0 1 6.650000095367432,1.6200000047683716 c2.7699999809265137,4.079999923706055 8.710000038146973,2.3499999046325684 8.710000038146973,2.3499999046325684 s1.0700000524520874,2.7300000190734863 1.5700000524520874,4.690000057220459 c0.11999999731779099,0.5 0.25,1.1200000047683716 0.3700000047683716,1.8200000524520874 C834.4400100708008,722.6800117492676 834.609992980957,725.3100166320801 834.1499710083008,726.6700019836426 z" fill="#ff748f" id="svg_80"/><circle cx="820.2899780273438" cy="713.3800048828125" r="0.550000011920929" fill="#575988" id="svg_81"/><circle cx="815.5599975585938" cy="717.8099975585938" r="0.550000011920929" fill="#575988" id="svg_82"/><circle cx="810.75" cy="721.7899780273438" r="0.550000011920929" fill="#575988" id="svg_83"/><circle cx="813.239990234375" cy="720.010009765625" r="0.550000011920929" fill="#575988" id="svg_84"/><circle cx="818.030029296875" cy="715.4600219726562" r="0.550000011920929" fill="#575988" id="svg_85"/><path d="M834.1499710083008,726.6700019836426 c-0.6000000238418579,1.8200000524520874 -5.139999866485596,1.8200000524520874 -5.139999866485596,1.8200000524520874 s-8.109999656677246,2.319999933242798 -11.739999771118164,4.130000114440918 s-6.090000152587891,0.8600000143051147 -6.090000152587891,0.8600000143051147 c-8.3100004196167,1.909999966621399 -19,-1.409999966621399 -22.219999313354492,-2.069999933242798 s-4.480000019073486,-4.829999923706055 -0.5,-5.639999866485596 a8.0600004196167,8.0600004196167 0 0 0 1.4900000095367432,-0.46000000834465027 a38.68000030517578,38.68000030517578 0 0 0 10.899999618530273,2.069999933242798 c8.210000038146973,0.3499999940395355 14.710000038146973,0 14.710000038146973,0 l8.3100004196167,-2.6700000762939453 a13.890000343322754,13.890000343322754 0 0 1 5.139999866485596,-1.8600000143051147 a13.4399995803833,13.4399995803833 0 0 0 5.110000133514404,-2.2200000286102295 C834.4400100708008,722.6800117492676 834.609992980957,725.3100166320801 834.1499710083008,726.6700019836426 z" fill="#dce6f2" id="svg_86"/><path d="M813.4699783325195,731.8800239562988 a6.880000114440918,6.880000114440918 0 0 1 -1.3799999952316284,-0.12999999523162842 l0.11999999731779099,-0.5899999737739563 a8.800000190734863,8.800000190734863 0 0 0 5,-0.699999988079071 c0.7400000095367432,-0.28999999165534973 1.4800000190734863,-0.6399999856948853 2.200000047683716,-1 s1.7300000190734863,-0.8100000023841858 2.630000114440918,-1.1399999856948853 l0.8199999928474426,-0.2800000011920929 c0.44999998807907104,-0.1599999964237213 0.9100000262260437,-0.3100000023841858 1.350000023841858,-0.5 c0.25,-0.10000000149011612 0.5,-0.2199999988079071 0.7400000095367432,-0.3400000035762787 a8.510000228881836,8.510000228881836 0 0 1 1.8600000143051147,-0.7099999785423279 a9.180000305175781,9.180000305175781 0 0 1 1,-0.12999999523162842 a8.899999618530273,8.899999618530273 0 0 0 0.9200000166893005,-0.10999999940395355 a8.649999618530273,8.649999618530273 0 0 0 1.75,-0.6499999761581421 a8.460000038146973,8.460000038146973 0 0 1 1.8799999952316284,-0.699999988079071 l0.4399999976158142,-0.07000000029802322 a2.1500000953674316,2.1500000953674316 0 0 0 1.2999999523162842,-0.47999998927116394 l0.44999998807907104,0.4099999964237213 a2.7100000381469727,2.7100000381469727 0 0 1 -1.649999976158142,0.6700000166893005 l-0.41999998688697815,0.07000000029802322 a8.09000015258789,8.09000015258789 0 0 0 -1.75,0.6499999761581421 a9.170000076293945,9.170000076293945 0 0 1 -1.8799999952316284,0.6899999976158142 a6.690000057220459,6.690000057220459 0 0 1 -1,0.11999999731779099 a8.920000076293945,8.920000076293945 0 0 0 -0.9399999976158142,0.11999999731779099 a8,8 0 0 0 -1.7300000190734863,0.6700000166893005 l-0.7599999904632568,0.3499999940395355 c-0.46000000834465027,0.1899999976158142 -0.9399999976158142,0.3499999940395355 -1.399999976158142,0.5099999904632568 l-0.800000011920929,0.2800000011920929 c-0.8799999952316284,0.3199999928474426 -1.7400000095367432,0.7300000190734863 -2.5799999237060547,1.1200000047683716 s-1.4800000190734863,0.699999988079071 -2.240000009536743,1 A10.90999984741211,10.90999984741211 0 0 1 813.4699783325195,731.8800239562988 z" fill="#575988" opacity="0.5" id="svg_87"/><path d="M815.4099807739258,631.7600288391113 s4.179999828338623,-6 11.34000015258789,-6 s10.220000267028809,-0.8100000023841858 10.220000267028809,-0.8100000023841858 s-4.579999923706055,2.7200000286102295 -7.75,3.069999933242798 S815.4099807739258,631.7600288391113 815.4099807739258,631.7600288391113 z" opacity="0.1" id="svg_88"/><path d="M817.8300247192383,633.1700019836426 s3.7799999713897705,-2.619999885559082 5.940000057220459,-2.7200000286102295 s4,-0.30000001192092896 4,-0.30000001192092896 a11.5600004196167,11.5600004196167 0 0 1 -3.319999933242798,1.6100000143051147 C822.6800003051758,632.2600288391113 817.8300247192383,633.1700019836426 817.8300247192383,633.1700019836426 z" opacity="0.1" id="svg_89"/><path d="M818.6800003051758,634.9799995422363 s5.690000057220459,0.44999998807907104 5.739999771118164,2 " opacity="0.1" id="svg_90"/><path d="M765.609992980957,549.9799995422363 c0.30000001192092896,0.05000000074505806 5.389999866485596,-5.289999961853027 5.739999771118164,-7.400000095367432 a5.170000076293945,5.170000076293945 0 0 1 2.2100000381469727,-3.259999990463257 s3.2799999713897705,1.309999942779541 0.36000001430511475,5.329999923706055 S765.609992980957,549.9799995422363 765.609992980957,549.9799995422363 z" opacity="0.1" id="svg_91"/><path d="M843.6800003051758,377.18999099731445 c-1.159999966621399,2.740000009536743 -2.180000066757202,3 -2,5.610000133514404 a20,20 0 0 1 -4.610000133514404,3.630000114440918 c-3.5999999046325684,2.140000104904175 -7.519999980926514,6.329999923706055 -12,6.329999923706055 a23.90999984741211,23.90999984741211 0 0 1 -8.770000457763672,-1.659999966621399 c-0.7200000286102295,-5.690000057220459 -2.859999895095825,-8.15999984741211 -2.859999895095825,-8.15999984741211 S848.9600296020508,364.7599983215332 843.6800003051758,377.18999099731445 z" opacity="0.1" id="svg_92"/><path d="M849.120002746582,367.5200080871582 a24,24 0 1 1 -24,-24 A24,24 0 0 1 849.120002746582,367.5200080871582 z" fill="#cc818c" id="svg_93"/><path d="M850.6800003051758,402.8900032043457 l-7.710000038146973,11.479999542236328 s-36.43000030517578,17.3799991607666 -29.469999313354492,-3 c3.059999942779541,-9 3.4200000762939453,-15.569999694824219 2.869999885559082,-20.1200008392334 l0.05999999865889549,0 a19.270000457763672,19.270000457763672 0 0 1 0.7300000190734863,4.630000114440918 c0.10999999940395355,3.140000104904175 0.1899999976158142,7.110000133514404 8,8.420000076293945 c13,2.180000066757202 19.940000534057617,-5.940000057220459 21.15999984741211,-7.53000020980835 A37.709999084472656,37.709999084472656 0 0 0 850.6800003051758,402.8900032043457 z" opacity="0.1" id="svg_94"/><path d="M697.2899856567383,354.1500129699707 l-4.829999923706055,9.369999885559082 a19,19 0 0 1 -4.489999771118164,-0.9399999976158142 l-0.41999998688697815,-0.5 c2,0.7599999904632568 8.609999656677246,-11.789999961853027 8.609999656677246,-11.789999961853027 l0.20999999344348907,0.17000000178813934 C696.9500198364258,352.6500129699707 697.2899856567383,354.1500129699707 697.2899856567383,354.1500129699707 z" opacity="0.1" id="svg_95"/><path d="M843.0800247192383,529.7500190734863 c-15.5600004196167,6.760000228881836 -69.37999725341797,1 -69.37999725341797,1 a7.369999885559082,7.369999885559082 0 0 0 0.27000001072883606,-1.7599999904632568 c1.4600000381469727,-2.240000009536743 2.549999952316284,-3.5799999237060547 2.549999952316284,-3.5799999237060547 l64.4800033569336,-2.5199999809265137 S842.0499954223633,525.7600288391113 843.0800247192383,529.7500190734863 z" opacity="0.1" id="svg_96"/><path d="M816.390022277832,391.80998611450195 l-7.179999828338623,3.069999933242798 a5.690000057220459,5.690000057220459 0 0 1 -5.130000114440918,-3.3299999237060547 c-1.6699999570846558,-3.4700000286102295 -7.559999942779541,0 -7.559999942779541,0 s-18,-1.3600000143051147 -24.639999389648438,2 c0,0 -10.729999542236328,-4.539999961853027 -12.239999771118164,-4.840000152587891 s-3.7799999713897705,-1.5099999904632568 -4.840000152587891,-1.2100000381469727 s-2.4100000858306885,-2 -3.1700000762939453,-1.809999942779541 s-1.059999942779541,-1.5099999904632568 -3.4800000190734863,-2.119999885559082 s-3.319999933242798,0.15000000596046448 -6,-2.569999933242798 s-24.790000915527344,-13.449999809265137 -24.790000915527344,-13.449999809265137 l-10,-8.15999984741211 l-10.579999923706055,-8.460000038146973 s-6.650000095367432,12.539999961853027 -8.619999885559082,11.779999732971191 l20.100000381469727,24.190000534057617 s14.510000228881836,12.6899995803833 24.489999771118164,16.770000457763672 s9.220000267028809,5.289999961853027 9.220000267028809,5.289999961853027 s30.229999542236328,15.420000076293945 34.90999984741211,15.119999885559082 S780.6800003051758,455.6300239562988 778.6800003051758,460.7699775695801 s-5.130000114440918,42.31999969482422 -5.130000114440918,42.31999969482422 s-3,7.860000133514404 0.15000000596046448,13.300000190734863 c0,0 0.75,11.1899995803833 0,13.149999618530273 c0,0 54.150001525878906,5.789999961853027 69.5199966430664,-1.059999942779541 c0,0 2.2699999809265137,-25.09000015258789 0,-28.260000228881836 S845.339973449707,489.9799995422363 845.339973449707,489.9799995422363 l9.670000076293945,-21.610000610351562 l23.579999923706055,-23.729999542236328 s3.619999885559082,-19.799999237060547 -12.550000190734863,-32.4900016784668 l-10.729999542236328,-9.529999732971191 s-6,-5.190000057220459 -7.760000228881836,-5.519999980926514 s-1.1100000143051147,0 -1.1100000143051147,0 s-7,10.210000038146973 -21.360000610351562,7.789999961853027 c-7.78000020980835,-1.309999942779541 -7.860000133514404,-5.28000020980835 -8,-8.40999984741211 A19.600000381469727,19.600000381469727 0 0 0 816.390022277832,391.80998611450195 z" fill="#67647e" id="svg_97"/><path d="M845.9400100708008,473.1700019836426 S812.6800003051758,474.5299873352051 806.0399856567383,484.9799995422363 c0,0 8.619999885559082,-4.090000152587891 16.31999969482422,-2.880000114440918 S845.9400100708008,473.1700019836426 845.9400100708008,473.1700019836426 z" opacity="0.1" id="svg_98"/><path d="M809.2100296020508,509.5899848937988 s15.720000267028809,1.059999942779541 19.049999237060547,-2.2699999809265137 s3.3399999141693115,-5.289999961853027 3.3399999141693115,-5.289999961853027 z" opacity="0.1" id="svg_99"/><path d="M849.120002746582,441.1200141906738 s-13.3100004196167,15.720000267028809 2.869999885559082,22.520000457763672 z" opacity="0.1" id="svg_100"/><path d="M770.370002746582,410.7499885559082 s4.840000152587891,9.869999885559082 7.260000228881836,10.520000457763672 z" opacity="0.1" id="svg_101"/><path d="M754.0499954223633,406.5099983215332 s12.09000015258789,10.890000343322754 14.359999656677246,11.9399995803833 C768.4099807739258,418.45000076293945 755.859992980957,406.5099983215332 754.0499954223633,406.5099983215332 z" opacity="0.1" id="svg_102"/><path d="M802.2600173950195,396.0899848937988 s-11.640000343322754,17.3799991607666 -4.079999923706055,28 C798.1800003051758,424.0500068664551 793.9500198364258,411.4999885559082 802.2600173950195,396.0899848937988 z" opacity="0.1" id="svg_103"/><path d="M831.599983215332,527.7299995422363 l-3.559999942779541,3.3499999046325684 l-0.5,0.46000000834465027 l-4.119999885559082,3.9000000953674316 c-0.28999999165534973,0.2199999988079071 -0.5799999833106995,0.4399999976158142 -0.8799999952316284,0.6399999856948853 c-16.770000457763672,12 -20.1299991607666,-6.239999771118164 -20.1299991607666,-6.239999771118164 s-7.400000095367432,4.840000152587891 -8.460000038146973,0.9100000262260437 s17.229999542236328,-9.520000457763672 20,-9.220000267028809 a3.5899999141693115,3.5899999141693115 0 0 0 0.7300000190734863,0 a11.4399995803833,11.4399995803833 0 0 0 3.759999990463257,-1.3300000429153442 l0.8100000023841858,-0.4300000071525574 a32,32 0 0 0 2.7100000381469727,-1.7100000381469727 z" fill="#cc818c" id="svg_104"/><path d="M849.6800003051758,367.5200080871582 A24,24 0 0 1 837.9799880981445,388.1800117492676 a13.640000343322754,13.640000343322754 0 0 1 -0.8799999952316284,-1.75 c-0.8600000143051147,-2 -1.3899999856948853,-4.159999847412109 -2.259999990463257,-6.170000076293945 a19,19 0 0 0 -4,-5.880000114440918 a2.549999952316284,2.549999952316284 0 0 0 -1.0700000524520874,-0.7400000095367432 a2.880000114440918,2.880000114440918 0 0 0 -2.200000047683716,0.6100000143051147 a10.109999656677246,10.109999656677246 0 0 1 -3.3499999046325684,1.4700000286102295 a3.559999942779541,3.559999942779541 0 0 1 -3.359999895095825,-1 c-0.9399999976158142,-1.1200000047683716 -0.8100000023841858,-2.759999990463257 -0.5400000214576721,-4.190000057220459 c0.5899999737739563,-3.130000114440918 1.5700000524520874,-6.210000038146973 1.5800000429153442,-9.390000343322754 s-1.2100000381469727,-6.599999904632568 -4,-8.180000305175781 c-2.440000057220459,-1.3899999856948853 -5.46999979019165,-1 -8.180000305175781,-1.7799999713897705 a8.920000076293945,8.920000076293945 0 0 1 -1.2300000190734863,-0.41999998688697815 A24,24 0 0 1 849.6800003051758,367.5200080871582 z" opacity="0.1" id="svg_105"/><path d="M806.849983215332,346.9200019836426 c-0.4300000071525574,0.23000000417232513 -0.9100000262260437,0.6499999761581421 -0.7799999713897705,1.1299999952316284 a1.1399999856948853,1.1399999856948853 0 0 0 0.4399999976158142,0.5600000023841858 a10.489999771118164,10.489999771118164 0 0 0 3.799999952316284,1.9500000476837158 c2.7100000381469727,0.7400000095367432 5.75,0.38999998569488525 8.1899995803833,1.7799999713897705 c2.759999990463257,1.5700000524520874 4,5 4,8.180000305175781 s-1,6.260000228881836 -1.5700000524520874,9.380000114440918 c-0.27000001072883606,1.440000057220459 -0.4099999964237213,3.0799999237060547 0.5299999713897705,4.199999809265137 a3.5899999141693115,3.5899999141693115 0 0 0 3.359999895095825,1 a10,10 0 0 0 3.3499999046325684,-1.4600000381469727 a2.9100000858306885,2.9100000858306885 0 0 1 2.2100000381469727,-0.6200000047683716 a2.7200000286102295,2.7200000286102295 0 0 1 1.0700000524520874,0.7400000095367432 a19,19 0 0 1 4,5.889999866485596 c0.8799999952316284,2 1.399999976158142,4.150000095367432 2.259999990463257,6.170000076293945 a10,10 0 0 0 4,5 c1.9199999570846558,1.059999942779541 4.579999923706055,1 6.059999942779541,-0.6399999856948853 s1.3600000143051147,-3.890000104904175 2.059999942779541,-5.860000133514404 c1.2000000476837158,-3.430000066757202 4.550000190734863,-5.579999923706055 6.650000095367432,-8.539999961853027 c2.3499999046325684,-3.3299999237060547 3,-7.510000228881836 3.640000104904175,-11.539999961853027 a9.479999542236328,9.479999542236328 0 0 0 0.05999999865889549,-3.859999895095825 a13.859999656677246,13.859999656677246 0 0 0 -1.059999942779541,-2.440000057220459 c-2.3399999141693115,-4.840000152587891 -2.2899999618530273,-10.930000305175781 -6,-14.789999961853027 c-2.799999952316284,-2.9000000953674316 -7.050000190734863,-3.7799999713897705 -11.050000190734863,-4.28000020980835 s-8.199999809265137,-0.7799999713897705 -11.630000114440918,-2.890000104904175 a12.649999618530273,12.649999618530273 0 0 0 -3.1500000953674316,-1.7400000095367432 a2.5799999237060547,2.5799999237060547 0 0 0 -3.0999999046325684,1.159999966621399 a2.059999942779541,2.059999942779541 0 0 1 -0.4099999964237213,0.8399999737739563 a1.3300000429153442,1.3300000429153442 0 0 1 -1.190000057220459,0.07000000029802322 l-5.320000171661377,-1.4299999475479126 l0.6100000143051147,2.680000066757202 a13.319999694824219,13.319999694824219 0 0 1 -5.650000095367432,-1 c-0.10000000149011612,1.5199999809265137 1.6100000143051147,2.5 2.140000104904175,3.9200000762939453 a3.630000114440918,3.630000114440918 0 0 1 -1,3.680000066757202 C811.4400100708008,346.0999946594238 809.0299758911133,345.7299995422363 806.849983215332,346.9200019836426 z" fill="#585268" id="svg_106"/><path d="M785.2899856567383,708.0399971008301 l-0.2199999988079071,2.4100000858306885 l-0.09000000357627869,0 c-8.670000076293945,4.840000152587891 -26.600000381469727,-8.65999984741211 -26.600000381469727,-8.65999984741211 l1.8700000047683716,-1.8700000047683716 a3.259999990463257,3.259999990463257 0 0 1 0.8199999928474426,2.5299999713897705 l3.6600000858306885,0.20000000298023224 l4.380000114440918,4.730000019073486 s11.850000381469727,1.3700000047683716 15.0600004196167,0.6100000143051147 z" opacity="0.1" id="svg_107"/><path d="M783.7700271606445,721.1800117492676 c-5.639999866485596,1.2599999904632568 -25.389999389648438,1.1699999570846558 -25.389999389648438,1.1699999570846558 l-11.079999923706055,1.75 s-19,1.8200000524520874 -21.110000610351562,-4.079999923706055 s1.659999966621399,-5.53000020980835 1.659999966621399,-5.53000020980835 l0.15000000596046448,0 l7.909999847412109,-0.6399999856948853 s10,-3.880000114440918 13.710000038146973,-6.550000190734863 a79.5999984741211,79.5999984741211 0 0 0 8.210000038146973,-7.360000133514404 s3.299999952316284,-0.6399999856948853 3.240000009536743,3.180000066757202 l3.6600000858306885,0.20000000298023224 l4.380000114440918,4.739999771118164 s11.850000381469727,1.3700000047683716 15.0600004196167,0.6000000238418579 h1.1200000047683716 l-0.5099999904632568,5.849999904632568 l0.14000000059604645,0.17000000178813934 C785.6800003051758,715.5999946594238 788.8100051879883,720.0600166320801 783.7700271606445,721.1800117492676 z" fill="#ff748f" id="svg_108"/><circle cx="763.3200073242188" cy="706.52001953125" r="0.550000011920929" fill="#575988" id="svg_109"/><circle cx="749.1099853515625" cy="712.6799926757812" r="0.550000011920929" fill="#575988" id="svg_110"/><circle cx="741.7899780273438" cy="714.9000244140625" r="0.550000011920929" fill="#575988" id="svg_111"/><circle cx="752.8400268554688" cy="711.5" r="0.550000011920929" fill="#575988" id="svg_112"/><circle cx="745.4400024414062" cy="713.7899780273438" r="0.550000011920929" fill="#575988" id="svg_113"/><circle cx="756.6099853515625" cy="709.75" r="0.550000011920929" fill="#575988" id="svg_114"/><circle cx="760.3400268554688" cy="708.1300048828125" r="0.550000011920929" fill="#575988" id="svg_115"/><path d="M783.7700271606445,721.1800117492676 c-5.639999866485596,1.2599999904632568 -25.389999389648438,1.1699999570846558 -25.389999389648438,1.1699999570846558 l-11.079999923706055,1.75 s-19,1.8200000524520874 -21.110000610351562,-4.079999923706055 s1.659999966621399,-5.53000020980835 1.659999966621399,-5.53000020980835 l0.15000000596046448,0 c1.2100000381469727,1.5700000524520874 3.640000104904175,3.3499999046325684 8.40999984741211,3.440000057220459 l13.65999984741211,0.550000011920929 l14.149999618530273,-1 s13.260000228881836,-0.38999998569488525 15.420000076293945,-0.8500000238418579 a31.59000015258789,31.59000015258789 0 0 0 5.28000020980835,-1.940000057220459 C785.6800003051758,715.5999946594238 788.8100051879883,720.0600166320801 783.7700271606445,721.1800117492676 z" fill="#dce6f2" id="svg_116"/><path d="M748.370002746582,722.7699775695801 a8.1899995803833,8.1899995803833 0 0 1 -2.240000009536743,-0.2800000011920929 l0.1599999964237213,-0.5799999833106995 a11.100000381469727,11.100000381469727 0 0 0 5.619999885559082,-0.25 c0.6700000166893005,-0.18000000715255737 1.3300000429153442,-0.3700000047683716 2,-0.5699999928474426 a31.600000381469727,31.600000381469727 0 0 1 3.690000057220459,-0.9300000071525574 A30.56999969482422,30.56999969482422 0 0 1 763.6800003051758,719.9799995422363 l0.4300000071525574,0 a93.62000274658203,93.62000274658203 0 0 0 18.139999389648438,-0.8100000023841858 a6.789999961853027,6.789999961853027 0 0 0 3.880000114440918,-1.559999942779541 l0.4300000071525574,0.4300000071525574 a7.360000133514404,7.360000133514404 0 0 1 -4.210000038146973,1.7300000190734863 a94.08999633789062,94.08999633789062 0 0 1 -18.260000228881836,0.8100000023841858 l-0.4399999976158142,0 a30.09000015258789,30.09000015258789 0 0 0 -6,0.18000000715255737 a29.790000915527344,29.790000915527344 0 0 0 -3.609999895095825,0.9100000262260437 c-0.6700000166893005,0.20000000298023224 -1.340000033378601,0.4000000059604645 -2,0.5699999928474426 A15.199999809265137,15.199999809265137 0 0 1 748.370002746582,722.7699775695801 z" fill="#575988" opacity="0.5" id="svg_117"/><path d="M831.599983215332,527.7299995422363 l-3.559999942779541,3.3499999046325684 l-8.84000015258789,-11.319999694824219 a32,32 0 0 0 2.7100000381469727,-1.7100000381469727 z" opacity="0.1" id="svg_118"/><path d="M871.6800003051758,434.9799995422363 l7,9.670000076293945 v10.130000114440918 s3.1700000762939453,10.729999542236328 0,21.459999084472656 l0.3400000035762787,9.369999885559082 s-3.369999885559082,8.609999656677246 -2.1600000858306885,10.729999542236328 c0,0 -0.6000000238418579,6.349999904632568 -8.760000228881836,10.729999542236328 S850.6800003051758,521.8299751281738 850.6800003051758,521.8299751281738 s-3.4800000190734863,6.650000095367432 -12.850000381469727,5.139999866485596 l-8.920000076293945,3.7799999713897705 l-10.270000457763672,-13.149999618530273 l13.899999618530273,-7.559999942779541 s4.840000152587891,-6.489999771118164 7.710000038146973,-6.190000057220459 l11.789999961853027,-13.760000228881836 s0.30000001192092896,-4.380000114440918 3.319999933242798,-4.380000114440918 c0,0 -5.590000152587891,-4.53000020980835 -3.630000114440918,-7.25 s0.3100000023841858,-14.819999694824219 0.3100000023841858,-14.819999694824219 z" fill="#67647e" id="svg_119"/><path d="M858.6800003051758,479.0600166320801 s15.869999885559082,-0.30000001192092896 17.829999923706055,3.7799999713897705 S863.4699783325195,476.7899971008301 858.6800003051758,479.0600166320801 z" opacity="0.1" id="svg_120"/><path d="M827.609992980957,530.7500190734863 a4.150000095367432,4.150000095367432 0 0 1 -0.07000000029802322,0.7900000214576721 a5.340000152587891,5.340000152587891 0 0 1 -5,4.539999961853027 h-0.2800000011920929 a5.340000152587891,5.340000152587891 0 0 1 -5.340000152587891,-5.340000152587891 a5.199999809265137,5.199999809265137 0 0 1 0.30000001192092896,-1.7300000190734863 c-2.5199999809265137,-2 -2.6600000858306885,-5.679999828338623 -2.5899999141693115,-7.5 a11.4399995803833,11.4399995803833 0 0 0 3.759999990463257,-1.3300000429153442 a24.8799991607666,24.8799991607666 0 0 0 2.630000114440918,5.369999885559082 a5.610000133514404,5.610000133514404 0 0 1 1.2400000095367432,-0.15000000596046448 A5.349999904632568,5.349999904632568 0 0 1 827.609992980957,530.7500190734863 z" opacity="0.1" id="svg_121"/><path d="M818.870002746582,518.9799995422363 s-3.5799999237060547,0.8100000023841858 -3.5799999237060547,1.4600000381469727 s-0.8100000023841858,6.550000190734863 3.119999885559082,9 s3.5299999713897705,-3.380000114440918 3.5299999713897705,-3.380000114440918 S818.5600051879883,520.8800239562988 818.870002746582,518.9799995422363 z" fill="#575988" id="svg_122"/><circle cx="822.8599853515625" cy="530.75" r="5.340000152587891" fill="#e4aab4" id="svg_123"/><circle cx="822.8599853515625" cy="530.75" r="4.579999923706055" fill="#dce6f2" id="svg_124"/><path d="M802.0600051879883,532.8200263977051 s11.289999961853027,9.359999656677246 25.790000915527344,3.4200000762939453 v4.539999961853027 s-9.670000076293945,6.650000095367432 -18.43000030517578,2.619999885559082 S802.0600051879883,532.8200263977051 802.0600051879883,532.8200263977051 z" opacity="0.1" id="svg_125"/><path d="M802.0600051879883,531.6100044250488 s11.289999961853027,9.369999885559082 25.790000915527344,3.4200000762939453 v4.539999961853027 s-9.670000076293945,6.650000095367432 -18.43000030517578,2.619999885559082 S802.0600051879883,531.6100044250488 802.0600051879883,531.6100044250488 z" opacity="0.1" id="svg_126"/><path d="M802.0600051879883,531.6100044250488 s11.289999961853027,9.369999885559082 25.790000915527344,3.4200000762939453 v4.539999961853027 s-9.670000076293945,6.650000095367432 -18.43000030517578,2.619999885559082 S802.0600051879883,531.6100044250488 802.0600051879883,531.6100044250488 z" fill="#444053" id="svg_127"/><path d="M802.359992980957,531.6100044250488 s11.289999961853027,9.369999885559082 25.799999237060547,3.4200000762939453 v4.539999961853027 s-9.670000076293945,6.650000095367432 -18.440000534057617,2.619999885559082 S802.359992980957,531.6100044250488 802.359992980957,531.6100044250488 z" opacity="0.05" id="svg_128"/><path d="M766.589973449707,699.9200019836426 s15.119999885559082,2.7799999713897705 17.329999923706055,3.380000114440918 s-0.6000000238418579,1.659999966621399 -0.6000000238418579,1.659999966621399 S769.5200271606445,702.4900093078613 766.589973449707,699.9200019836426 z" opacity="0.1" id="svg_129"/><path d="M766.2399978637695,691.9099922180176 c0.25,0 10.279999732971191,-2.819999933242798 12.4399995803833,-7.650000095367432 " opacity="0.1" id="svg_130"/><path d="M780.870002746582,634.0799751281738 s4.059999942779541,5.340000152587891 6.679999828338623,5.190000057220459 S783.2500076293945,633.8800239562988 780.870002746582,634.0799751281738 z" opacity="0.1" id="svg_131"/><path d="M783.120002746582,642.9799995422363 s1.7100000381469727,3.7699999809265137 4.230000019073486,2.559999942779541 " opacity="0.1" id="svg_132"/><path d="M792.6800003051758,559.9799995422363 l10.720000267028809,28.270000457763672 s1.5099999904632568,-18.190000534057617 -1.6799999475479126,-23.6299991607666 A9.430000305175781,9.430000305175781 0 0 0 792.6800003051758,559.9799995422363 z" opacity="0.05" id="svg_133"/><g opacity="0.1" id="svg_134"><path d="M819.0200271606445,335.9799995422363 l-0.09000000357627869,-0.4099999964237213 l-1.7200000286102295,-0.46000000834465027 l0.1899999976158142,0.8399999737739563 A14.600000381469727,14.600000381469727 0 0 0 819.0200271606445,335.9799995422363 z" id="svg_135"/><path d="M814.2899856567383,342.8000068664551 l0.18000000715255737,-0.1599999964237213 a3.619999885559082,3.619999885559082 0 0 0 1,-3.680000066757202 a4.849999904632568,4.849999904632568 0 0 0 -0.8600000143051147,-1.3700000047683716 a14.130000114440918,14.130000114440918 0 0 1 -2.4800000190734863,-0.7300000190734863 c-0.10000000149011612,1.5099999904632568 1.600000023841858,2.490000009536743 2.130000114440918,3.9100000858306885 A3,3 0 0 1 814.2899856567383,342.8000068664551 z" id="svg_136"/><path d="M842.880012512207,389.2700080871582 a10,10 0 0 1 -4.050000190734863,-5 c-0.8500000238418579,-2 -1.3799999952316284,-4.159999847412109 -2.25,-6.159999847412109 a19,19 0 0 0 -4,-5.889999866485596 a2.619999885559082,2.619999885559082 0 0 0 -1.0700000524520874,-0.7400000095367432 a2.9200000762939453,2.9200000762939453 0 0 0 -2.200000047683716,0.6100000143051147 a10.109999656677246,10.109999656677246 0 0 1 -3.3499999046325684,1.4700000286102295 a3.5799999237060547,3.5799999237060547 0 0 1 -3.359999895095825,-1 c-0.9399999976158142,-1.1200000047683716 -0.8100000023841858,-2.7699999809265137 -0.5400000214576721,-4.199999809265137 c0.5899999737739563,-3.119999885559082 1.5700000524520874,-6.210000038146973 1.5800000429153442,-9.380000114440918 s-1.2100000381469727,-6.610000133514404 -4,-8.180000305175781 c-2.440000057220459,-1.3899999856948853 -5.46999979019165,-1 -8.180000305175781,-1.7799999713897705 a10.529999732971191,10.529999732971191 0 0 1 -3.809999942779541,-1.9500000476837158 a1.7999999523162842,1.7999999523162842 0 0 1 -0.20000000298023224,-0.1899999976158142 a5,5 0 0 0 -0.6600000262260437,0.3100000023841858 c-0.4399999976158142,0.23000000417232513 -0.9100000262260437,0.6499999761581421 -0.7900000214576721,1.1299999952316284 a1.2200000286102295,1.2200000286102295 0 0 0 0.44999998807907104,0.5600000023841858 a10.40999984741211,10.40999984741211 0 0 0 3.799999952316284,1.9500000476837158 c2.7100000381469727,0.7400000095367432 5.739999771118164,0.38999998569488525 8.180000305175781,1.7799999713897705 c2.759999990463257,1.5700000524520874 4,5 4,8.180000305175781 s-1,6.260000228881836 -1.5800000429153442,9.380000114440918 c-0.27000001072883606,1.440000057220459 -0.4000000059604645,3.0799999237060547 0.5400000214576721,4.199999809265137 a3.5799999237060547,3.5799999237060547 0 0 0 3.359999895095825,1 a10,10 0 0 0 3.3499999046325684,-1.4600000381469727 a2.890000104904175,2.890000104904175 0 0 1 2.200000047683716,-0.6200000047683716 a2.6500000953674316,2.6500000953674316 0 0 1 1.0700000524520874,0.7400000095367432 a19.209999084472656,19.209999084472656 0 0 1 4,5.889999866485596 c0.8799999952316284,2 1.399999976158142,4.150000095367432 2.259999990463257,6.170000076293945 a10,10 0 0 0 4,5 c1.909999966621399,1.059999942779541 4.579999923706055,1 6,-0.6399999856948853 a4.699999809265137,4.699999809265137 0 0 0 0.8999999761581421,-1.5199999809265137 A5.159999847412109,5.159999847412109 0 0 1 842.880012512207,389.2700080871582 z" id="svg_137"/><path d="M851.5200271606445,381.58000564575195 c1.5099999904632568,-1.909999966621399 3.5,-3.5399999618530273 4.920000076293945,-5.539999961853027 c0.2800000011920929,-0.4000000059604645 0.5400000214576721,-0.8199999928474426 0.7799999713897705,-1.2400000095367432 C855.390022277832,377.1299934387207 852.880012512207,378.9799995422363 851.5200271606445,381.58000564575195 z" id="svg_138"/></g></g></svg>