<svg data-name="Layer 1" xmlns="http://www.w3.org/2000/svg" width="811.7598266601562" height="620"><rect id="backgroundrect" width="100%" height="100%" x="0" y="0" fill="none" stroke="none"/><g class="currentLayer" style=""><title>Layer 1</title><path d="M74.91275024414062,619.031982421875 l-0.0378899984061718,0.24566000699996948 c-0.044929999858140945,-0.23913000524044037 -0.08816999942064285,-0.48420000076293945 -0.12926000356674194,-0.7255200147628784 c-0.07509999722242355,-0.38999998569488525 -0.1402599960565567,-0.7803999781608582 -0.2016800045967102,-1.1732100248336792 a95.55111694335938,95.55111694335938 0 0 1 3.907900094985962,-45.76335906982422 q1.4428000450134277,-4.307089805603027 3.2865500450134277,-8.456060409545898 a93.74713134765625,93.74713134765625 0 0 1 19.64776039123535,-28.708740234375 a40.444000244140625,40.444000244140625 0 0 1 9.112750053405762,-6.992330074310303 c0.49254000186920166,-0.2609499990940094 0.9877700209617615,-0.5082700252532959 1.49399995803833,-0.7362800240516663 a16.671449661254883,16.671449661254883 0 0 1 9.998000144958496,-1.4487799406051636 a13.635519981384277,13.635519981384277 0 0 1 3.559570074081421,1.1950000524520874 c0.39478999376296997,0.19200000166893005 0.7748600244522095,0.4027499854564667 1.1477400064468384,0.6276000142097473 a19.756250381469727,19.756250381469727 0 0 1 8.646309852600098,13.229519844055176 a30.86277961730957,30.86277961730957 0 0 1 -0.43487998843193054,12.031060218811035 q-0.12025000154972076,0.5650799870491028 -0.2584199905395508,1.125480055809021 a62.70539093017578,62.70539093017578 0 0 1 -2.489069938659668,7.73052978515625 C122.19338989257812,586.8621215820312 100.77029418945312,609.6190185546875 74.91275024414062,619.031982421875 z" fill="#f2f2f2" id="svg_1"/><path d="M125.48403930664062,526.5506591796875 q-11.667770385742188,16.76675033569336 -22.043790817260742,34.3838005065918 q-10.363409996032715,17.60240936279297 -19.371440887451172,35.957298278808594 q-5.03918981552124,10.269280433654785 -9.637740135192871,20.7467098236084 c-0.3394100069999695,0.7730000019073486 0.805620014667511,1.4454400539398193 1.1494100093841553,0.6624900102615356 q8.212539672851562,-18.703340530395508 17.824560165405273,-36.748600006103516 q9.606100082397461,-18.026870727539062 20.561479568481445,-35.29029846191406 q6.1297101974487305,-9.658060073852539 12.666930198669434,-19.04891014099121 c0.4873400032520294,-0.7002999782562256 -0.663860023021698,-1.3602299690246582 -1.1494100093841553,-0.6624900102615356 z" fill="#fff" id="svg_2"/><path d="M133.8072509765625,552.4237670898438 a36.42583084106445,36.42583084106445 0 0 1 -23.946399688720703,13.878419876098633 a34.620391845703125,34.620391845703125 0 0 1 -7.99383020401001,0.15838000178337097 c-0.8515999913215637,-0.08050999790430069 -0.8575500249862671,1.2467800378799438 -0.013260000385344028,1.3266099691390991 a37.749210357666016,37.749210357666016 0 0 0 27.368640899658203,-8.648469924926758 a35.94791030883789,35.94791030883789 0 0 0 5.734260082244873,-6.052450180053711 c0.511430025100708,-0.6805300116539001 -0.6414499878883362,-1.338420033454895 -1.1494100093841553,-0.6624900102615356 z" fill="#fff" id="svg_3"/><path d="M83.88339233398438,593.6318359375 a30.4950008392334,30.4950008392334 0 0 1 -3.3646299839019775,-6.220330238342285 a32.17041015625,32.17041015625 0 0 1 -2.066930055618286,-15.795949935913086 q1.4428000450134277,-4.307089805603027 3.2865500450134277,-8.456060409545898 a0.7582700252532959,0.7582700252532959 0 0 1 0.06128000095486641,0.749180018901825 a29.115310668945312,29.115310668945312 0 0 0 -1.8542799949645996,6.461679935455322 a30.748130798339844,30.748130798339844 0 0 0 5.089809894561768,22.60357093811035 a0.5393499732017517,0.5393499732017517 0 0 1 0.08812999725341797,0.5197700262069702 A0.7226700186729431,0.7226700186729431 0 0 1 83.88339233398438,593.6318359375 z" fill="#fff" id="svg_4"/><path d="M110.6971435546875,526.6182250976562 a30.87299919128418,30.87299919128418 0 0 0 1.3600000143051147,19.179609298706055 a0.6670600175857544,0.6670600175857544 0 0 0 0.9048500061035156,0.24695000052452087 a0.6795499920845032,0.6795499920845032 0 0 0 0.24695000052452087,-0.9048600196838379 a29.38117027282715,29.38117027282715 0 0 1 -1.2321699857711792,-18.172460556030273 a0.6636099815368652,0.6636099815368652 0 0 0 -1.2796499729156494,-0.3492400050163269 z" fill="#fff" id="svg_5"/><path d="M74.74966430664062,586.9973754882812 l0.08055999875068665,0.23514999449253082 c-0.15086999535560608,-0.19088999927043915 -0.30300000309944153,-0.38782998919487 -0.45149001479148865,-0.5824499726295471 c-0.24764999747276306,-0.31046000123023987 -0.4867199957370758,-0.6259400248527527 -0.723580002784729,-0.9452599883079529 a95.55132293701172,95.55132293701172 0 0 1 -17.79738998413086,-42.341590881347656 q-0.7229999899864197,-4.484399795532227 -1.0175800323486328,-9.015000343322754 a93.7470474243164,93.7470474243164 0 0 1 4.063469886779785,-34.55017852783203 a40.44419860839844,40.44419860839844 0 0 1 4.821809768676758,-10.425209999084473 c0.3149999976158142,-0.4598900079727173 0.6386299729347229,-0.9089999794960022 0.9810000061988831,-1.3459999561309814 a16.671459197998047,16.671459197998047 0 0 1 8.180859565734863,-5.927279949188232 a13.635479927062988,13.635479927062988 0 0 1 3.7073400020599365,-0.595229983329773 c0.43876999616622925,-0.013410000130534172 0.8732699751853943,-0.003289999905973673 1.307919979095459,0.022630000486969948 a19.7562198638916,19.7562198638916 0 0 1 13.802249908447266,7.699160099029541 a30.86280059814453,30.86280059814453 0 0 1 5.2035698890686035,10.856249809265137 q0.15600000321865082,0.5562800168991089 0.2939999997615814,1.116729974746704 a62.70412826538086,62.70412826538086 0 0 1 1.386780023574829,8.002079963684082 C101.67599487304688,536.5460815429688 93.27560424804688,566.6502075195312 74.74966430664062,586.9973754882812 z" fill="#f2f2f2" id="svg_6"/><path d="M76.57406616210938,481.60797119140625 q-2.5439999103546143,20.267929077148438 -3.549109935760498,40.68880081176758 q-1.0007400512695312,20.40205955505371 -0.45166000723838806,40.840858459472656 q0.3077999949455261,11.434889793395996 1.1024800539016724,22.84943962097168 c0.05849999934434891,0.842170000076294 1.3848700523376465,0.9057899713516235 1.3256200551986694,0.05274000018835068 q-1.4154000282287598,-20.377859115600586 -1.2857799530029297,-40.823001861572266 q0.13294999301433563,-20.42616081237793 1.81535005569458,-40.803001403808594 q0.9418500065803528,-11.400199890136719 2.368720054626465,-22.753049850463867 c0.10626000165939331,-0.8465399742126465 -1.2197500467300415,-0.8961899876594543 -1.3256200551986694,-0.05274999886751175 z" fill="#fff" id="svg_7"/><path d="M95.96340942382812,500.65386962890625 a36.42578125,36.42578125 0 0 1 -14.759180068969727,23.41381072998047 a34.61989974975586,34.61989974975586 0 0 1 -7.005459785461426,3.853569984436035 c-0.7915400266647339,0.324290007352829 -0.18026000261306763,1.5024499893188477 0.6044999957084656,1.180999994277954 a37.749229431152344,37.749229431152344 0 0 0 20.219219207763672,-20.372079849243164 a35.948001861572266,35.948001861572266 0 0 0 2.266540050506592,-8.023509979248047 c0.1367799937725067,-0.8402199745178223 -1.189769983291626,-0.8872900009155273 -1.3256200551986694,-0.05274000018835068 z" fill="#fff" id="svg_8"/><path d="M70.89480590820312,560.3369140625 a30.49551010131836,30.49551010131836 0 0 1 -5.869060039520264,-3.945539951324463 a32.170631408691406,32.170631408691406 0 0 1 -9.168000221252441,-13.028160095214844 q-0.7229999899864197,-4.484399795532227 -1.0175800323486328,-9.015000343322754 a0.7582399845123291,0.7582399845123291 0 0 1 0.4022800028324127,0.6349999904632568 a29.11511993408203,29.11511993408203 0 0 0 1.3595099449157715,6.5835700035095215 a30.748199462890625,30.748199462890625 0 0 0 15.007189750671387,17.65254020690918 a0.5393000245094299,0.5393000245094299 0 0 1 0.319489985704422,0.4193499982357025 A0.7226700186729431,0.7226700186729431 0 0 1 70.89480590820312,560.3369140625 z" fill="#fff" id="svg_9"/><path d="M63.510772705078125,488.53668212890625 a30.87299919128418,30.87299919128418 0 0 0 10.113719940185547,16.35300064086914 a0.6670699715614319,0.6670699715614319 0 0 0 0.9160000085830688,-0.20162999629974365 a0.6795399785041809,0.6795399785041809 0 0 0 -0.20163999497890472,-0.9160000085830688 a29.381120681762695,29.381120681762695 0 0 1 -9.532659530639648,-15.520469665527344 a0.6636099815368652,0.6636099815368652 0 0 0 -1.2954399585723877,0.28516000509262085 z" fill="#fff" id="svg_10"/><path d="M75.32379150390625,619.1952514648438 l0.1945199966430664,0.1547500044107437 c-0.22992999851703644,-0.07959000021219254 -0.46417000889778137,-0.16359999775886536 -0.694100022315979,-0.24761000275611877 c-0.3758699893951416,-0.12820999324321747 -0.7472100257873535,-0.26528000831604004 -1.1187599897384644,-0.4067699909210205 a95.55123901367188,95.55123901367188 0 0 1 -37.7994384765625,-26.09136962890625 q-3.0243399143218994,-3.389090061187744 -5.712560176849365,-7.047900199890137 a93.74710083007812,93.74710083007812 0 0 1 -15.183629989624023,-31.299909591674805 a40.44371032714844,40.44371032714844 0 0 1 -1.5518499612808228,-11.380999565124512 c0.01769999973475933,-0.5571100115776062 0.048569999635219574,-1.1097999811172485 0.10168000310659409,-1.6624900102615356 a16.67156982421875,16.67156982421875 0 0 1 3.700860023498535,-9.400150299072266 a13.63599967956543,13.63599967956543 0 0 1 2.803179979324341,-2.4981698989868164 c0.3624800145626068,-0.2476000040769577 0.734000027179718,-0.4730699956417084 1.1142300367355347,-0.6853299736976624 a19.756210327148438,19.756210327148438 0 0 1 15.776000022888184,-0.946179986000061 A30.86284065246582,30.86284065246582 0 0 1 47.185211181640625,534.0280151367188 q0.4309999942779541,0.38468000292778015 0.8491100072860718,0.7826099991798401 a62.703731536865234,62.703731536865234 0 0 1 5.478109836578369,5.995580196380615 C70.84033203125,562.1842041015625 79.97525024414062,592.0736694335938 75.32379150390625,619.1952514648438 z" fill="#f2f2f2" id="svg_11"/><path d="M20.102142333984375,529.4131469726562 q8.772000312805176,18.44757080078125 18.923059463500977,36.1952018737793 q10.144590377807617,17.729429244995117 21.61482048034668,34.6551513671875 q6.417749881744385,9.469099998474121 13.234800338745117,18.65884017944336 c0.5028499960899353,0.6780999898910522 1.6547000408172607,0.01735999993979931 1.145359992980957,-0.6694899797439575 Q62.852813720703125,601.844970703125 51.951019287109375,584.5484008789062 q-10.88877010345459,-17.28236961364746 -20.445409774780273,-35.357669830322266 q-5.346129894256592,-10.112879753112793 -10.258110046386719,-20.44709014892578 c-0.3663800060749054,-0.7705100178718567 -1.5104000568389893,-0.09820999950170517 -1.1453499794006348,0.66948002576828 z" fill="#fff" id="svg_12"/><path d="M46.696746826171875,535.0185546875 a36.42580032348633,36.42580032348633 0 0 1 0.17395000159740448,27.676889419555664 a34.61981964111328,34.61981964111328 0 0 1 -3.827310085296631,7.019839763641357 c-0.4922899901866913,0.6995400190353394 0.657289981842041,1.3630000352859497 1.145359992980957,0.6694899797439575 a37.749210357666016,37.749210357666016 0 0 0 6.064760208129883,-28.054540634155273 a35.948001861572266,35.948001861572266 0 0 0 -2.411410093307495,-7.9811601638793945 c-0.33726999163627625,-0.7816200256347656 -1.4803400039672852,-0.10684999823570251 -1.1453499794006348,0.66948002576828 z" fill="#fff" id="svg_13"/><path d="M57.7174072265625,598.8076171875 a30.4950008392334,30.4950008392334 0 0 1 -7.070109844207764,-0.16359999775886536 a32.17047882080078,32.17047882080078 0 0 1 -14.741270065307617,-6.03980016708374 q-3.0243399143218994,-3.389090061187744 -5.712560176849365,-7.047900199890137 a0.7582700252532959,0.7582700252532959 0 0 1 0.6809300184249878,0.31836000084877014 a29.115530014038086,29.115530014038086 0 0 0 4.6911702156066895,4.815000057220459 a30.748170852661133,30.748170852661133 0 0 0 22.151840209960938,6.791440010070801 a0.5393800139427185,0.5393800139427185 0 0 1 0.4950000047683716,0.18127000331878662 A0.7226799726486206,0.7226799726486206 0 0 1 57.7174072265625,598.8076171875 z" fill="#fff" id="svg_14"/><path d="M12.826751708984375,542.2865600585938 a30.87299919128418,30.87299919128418 0 0 0 17.328779220581055,8.331890106201172 c0.3580999970436096,0.04766000062227249 0.659850001335144,-0.33899998664855957 0.6632300019264221,-0.6632300019264221 a0.6795399785041809,0.6795399785041809 0 0 0 -0.6632300019264221,-0.6632300019264221 a29.381120681762695,29.381120681762695 0 0 1 -16.39082908630371,-7.9433698654174805 c-0.6148099899291992,-0.5926200151443481 -1.5540000200271606,0.3441399931907654 -0.9380000233650208,0.9379400014877319 z" fill="#fff" id="svg_15"/><path d="M165.861328125,444.2489013671875 a10.742679595947266,10.742679595947266 0 0 0 1.5818699598312378,-16.396499633789062 l4.167190074920654,-93.01793670654297 l-21.21552085876465,2.3812999725341797 l1.232550024986267,90.98468017578125 a10.800909996032715,10.800909996032715 0 0 0 14.233909606933594,16.048460006713867 z" fill="#ffb8b8" id="svg_16"/><polygon points="204.564 601.708 216.639 603.83 228.573 558.267 212.752 555.134 204.564 601.708" fill="#ffb8b8" id="svg_17"/><path d="M893.9273376464844,2158.409912109375 h38.530731201171875 a0,0 0 0 1 0,0 v14.886870384216309 a0,0 0 0 1 0,0 H908.8141784667969 a14.886859893798828,14.886859893798828 0 0 1 -14.886859893798828,-14.886859893798828 v0 A0,0 0 0 1 893.9273376464844,2158.409912109375 z" transform="rotate(-170.029, 498.804, 1417.38)" fill="#2f2e41" id="svg_18"/><polygon points="171.422 607.752 183.682 607.751 189.514 560.463 171.42 560.464 171.422 607.752" fill="#ffb8b8" id="svg_19"/><path d="M933.1897888183594,2107.6148071289062 h38.530731201171875 a0,0 0 0 1 0,0 v14.886870384216309 a0,0 0 0 1 0,0 H948.0766296386719 a14.886859893798828,14.886859893798828 0 0 1 -14.886859893798828,-14.886859893798828 v0 A0,0 0 0 1 933.1897888183594,2107.6148071289062 z" transform="rotate(179.997, 570.275, 1363.37)" fill="#2f2e41" id="svg_20"/><path d="M223.57443237304688,594.802490234375 a4.750080108642578,4.750080108642578 0 0 1 -0.5725200176239014,-0.033890001475811005 l-14.430000305175781,-1.1874099969863892 a4.880770206451416,4.880770206451416 0 0 1 -4.242509841918945,-5.659510135650635 l13.32468032836914,-74.68099975585938 l-9.003520011901855,-47.4739990234375 a1.627060055732727,1.627060055732727 0 0 0 -3.2190001010894775,0.15995000302791595 L194.17581176757812,592.5543212890625 a4.923689842224121,4.923689842224121 0 0 1 -5.20959997177124,4.437150001525879 l-13.5947904586792,-0.5063199996948242 a4.887829780578613,4.887829780578613 0 0 1 -4.536449909210205,-4.63100004196167 l-0.9138500094413757,-151.76760864257812 l70.48116302490234,-8.809679985046387 l4.923600196838379,76.04057312011719 l-0.019589999690651894,0.08049999922513962 l-16.99070930480957,83.67500305175781 A4.885819911956787,4.885819911956787 0 0 1 223.57443237304688,594.802490234375 z" fill="#2f2e41" id="svg_21"/><circle cx="193.1586456298828" cy="249.99668884277344" r="24.5610294342041" fill="#ffb8b8" id="svg_22"/><path d="M216.30117797851562,451.17889404296875 a20.110000610351562,20.110000610351562 0 0 1 -10.85692024230957,-3.1056900024414062 c-11.897359848022461,-7.435850143432617 -25.41058921813965,-4.480569839477539 -32.4068603515625,-2.056999921798706 a4.880090236663818,4.880090236663818 0 0 1 -4.220530033111572,-0.4808900058269501 a4.810830116271973,4.810830116271973 0 0 1 -2.224400043487549,-3.5516300201416016 L153.86990356445312,328.358154296875 c-2.131999969482422,-19.03767967224121 9.335860252380371,-36.93667984008789 27.2677001953125,-42.55965042114258 h0 q1.0105199813842773,-0.31700000166893005 2.055190086364746,-0.6011199951171875 a39.568660736083984,39.568660736083984 0 0 1 32.97200012207031,5.722539901733398 a40.2034912109375,40.2034912109375 0 0 1 17.166799545288086,29.353069305419922 l10.710479736328125,114.38710021972656 a4.807380199432373,4.807380199432373 0 0 1 -1.52715003490448,4.0071001052856445 C238.76046752929688,442.14044189453125 227.86328125,451.1778564453125 216.30117797851562,451.17889404296875 z" fill="#69b0fc" id="svg_23" class="" fill-opacity="1"/><path d="M177.56002807617188,352.724365234375 l-28.703369140625,-3.1559998989105225 a5.717470169067383,5.717470169067383 0 0 1 -4.905429840087891,-7.133820056915283 l7.306059837341309,-27.846370697021484 a15.878520011901855,15.878520011901855 0 0 1 31.556379318237305,3.563260078430176 l1.0846099853515625,28.675310134887695 a5.717490196228027,5.717490196228027 0 0 1 -6.338250160217285,5.897580146789551 z" fill="#69b0fc" id="svg_24" class="" fill-opacity="1"/><path d="M243.92724609375,440.26580810546875 a10.742639541625977,10.742639541625977 0 0 0 -0.40564000606536865,-16.46763038635254 L236.44866943359375,330.95599365234375 l-20.788509368896484,4.679649829864502 l12.202879905700684,90.4140625 a10.800909996032715,10.800909996032715 0 0 0 16.064199447631836,14.216130256652832 z" fill="#ffb8b8" id="svg_25"/><path d="M207.69009399414062,346.88800048828125 a5.711299896240234,5.711299896240234 0 0 1 -1.8184499740600586,-4.399829864501953 l1.0846099853515625,-28.67531967163086 a15.878520011901855,15.878520011901855 0 0 1 31.556379318237305,-3.563260078430176 l7.306059837341309,27.846370697021484 a5.717490196228027,5.717490196228027 0 0 1 -4.905429840087891,7.1338300704956055 l-28.703369140625,3.1559998989105225 A5.710999965667725,5.710999965667725 0 0 1 207.69009399414062,346.88800048828125 z" fill="#69b0fc" id="svg_26" class="" fill-opacity="1"/><path d="M191.69784545898438,275.4830627441406 a5.683000087738037,5.683000087738037 0 0 1 -1.2966300249099731,-0.15137000381946564 l-0.12475000321865082,-0.03027000091969967 c-21.59449005126953,-3.3037099838256836 -26.36669921875,-15.811530113220215 -27.414310455322266,-21.035160064697266 c-1.0842299461364746,-5.408199787139893 0.15038999915122986,-10.628419876098633 2.940190076828003,-12.655759811401367 c-1.5210000276565552,-4.802730083465576 -1.276859998703003,-9.060999870300293 0.7272899746894836,-12.662110328674316 c3.4953598976135254,-6.280270099639893 11.081060409545898,-8.403809547424316 12.098389625549316,-8.663570404052734 c6.058110237121582,-4.469240188598633 13.306400299072266,-1.4858399629592896 14.625240325927734,-0.8808599710464478 c11.718509674072266,-4.335450172424316 16.197509765625,-0.7265700101852417 17.007570266723633,0.07909999787807465 c5.238279819488525,0.9409199953079224 8.431150436401367,2.9643499851226807 9.491209983825684,6.015620231628418 c1.9910000562667847,5.730999946594238 -4.305419921875,12.859869956970215 -4.574460029602051,13.160650253295898 l-0.13965000212192535,0.1557600051164627 l-9.38012981414795,0.4467799961566925 a6.357999801635742,6.357999801635742 0 0 0 -5.981200218200684,7.316889762878418 h0 a29.60405921936035,29.60405921936035 0 0 0 0.9604499936103821,3.3554699420928955 c1.6019999980926514,5.006350040435791 2.8022499084472656,9.28320026397705 1.2541500329971313,10.9091796875 a2.5096800327301025,2.5096800327301025 0 0 1 -2.6252400875091553,0.4550800025463104 c-1.4665499925613403,-0.39160001277923584 -2.462399959564209,-0.3095700144767761 -2.9584999084472656,0.24462999403476715 c-0.7702599763870239,0.8593699932098389 -0.5351499915122986,3.0346601009368896 0.6621099710464478,6.125490188598633 a5.738870143890381,5.738870143890381 0 0 1 -1.0458999872207642,5.8471598625183105 A5.568049907684326,5.568049907684326 0 0 1 191.69784545898438,275.4830627441406 z" fill="#2f2e41" id="svg_27"/><path d="M481.7598571777344,354 h-121 a17.0191707611084,17.0191707611084 0 0 1 -17,-17 V155.16845703125 a17.0191593170166,17.0191593170166 0 0 1 17,-17 h121 a17.0191593170166,17.0191593170166 0 0 1 17,17 V337 A17.0191707611084,17.0191707611084 0 0 1 481.7598571777344,354 zm-121,-213.83154296875 a15.017000198364258,15.017000198364258 0 0 0 -15,15 V337 a15.017000198364258,15.017000198364258 0 0 0 15,15 h121 a15.017000198364258,15.017000198364258 0 0 0 15,-15 V155.16845703125 a15.017000198364258,15.017000198364258 0 0 0 -15,-15 z" fill="#3f3d56" id="svg_28"/><path d="M463.2597961425781,225.58447265625 h-84 a8.509510040283203,8.509510040283203 0 0 1 -8.5,-8.5 v-40 a8.509510040283203,8.509510040283203 0 0 1 8.5,-8.5 h84 a8.509810447692871,8.509810447692871 0 0 1 8.5,8.5 v40 A8.509810447692871,8.509810447692871 0 0 1 463.2597961425781,225.58447265625 z" fill="#69b0fc" id="svg_29" class="" fill-opacity="1"/><path d="M457.2599182128906,263.0843505859375 h-72 a8,8 0 1 1 0,-16 h72 a8,8 0 0 1 0,16 z" fill="#ccc" id="svg_30"/><path d="M457.2599182128906,293.0843505859375 h-72 a8,8 0 1 1 0,-16 h72 a8,8 0 0 1 0,16 z" fill="#ccc" id="svg_31"/><path d="M457.2599182128906,323.0843505859375 h-72 a8,8 0 1 1 0,-16 h72 a8,8 0 0 1 0,16 z" fill="#ccc" id="svg_32"/><path d="M776.7598571777344,456 h-121 a17.0191707611084,17.0191707611084 0 0 1 -17,-17 V257.16845703125 a17.0191593170166,17.0191593170166 0 0 1 17,-17 h121 a17.0191593170166,17.0191593170166 0 0 1 17,17 V439 A17.0191707611084,17.0191707611084 0 0 1 776.7598571777344,456 zm-121,-213.83154296875 a15.017000198364258,15.017000198364258 0 0 0 -15,15 V439 a15.017000198364258,15.017000198364258 0 0 0 15,15 h121 a15.017000198364258,15.017000198364258 0 0 0 15,-15 V257.16845703125 a15.017000198364258,15.017000198364258 0 0 0 -15,-15 z" fill="#3f3d56" id="svg_33"/><path d="M752.2599182128906,285.0843505859375 h-72 a8,8 0 1 1 0,-16 h72 a8,8 0 0 1 0,16 z" fill="#ccc" id="svg_34"/><path d="M752.2599182128906,315.0843505859375 h-72 a8,8 0 1 1 0,-16 h72 a8,8 0 0 1 0,16 z" fill="#ccc" id="svg_35"/><path d="M758.2597961425781,391.583984375 h-84 a8.510129928588867,8.510129928588867 0 0 1 -8.5,-8.5 v-40 a8.510140419006348,8.510140419006348 0 0 1 8.5,-8.5 h84 a8.510129928588867,8.510129928588867 0 0 1 8.5,8.5 v40 A8.510120391845703,8.510120391845703 0 0 1 758.2597961425781,391.583984375 z" fill="#e6e6e6" id="svg_36"/><path d="M752.2599182128906,427.0843505859375 h-72 a8,8 0 1 1 0,-16 h72 a8,8 0 0 1 0,16 z" fill="#ccc" id="svg_37"/><path d="M702.7598571777344,167 h-121 a17.0191707611084,17.0191707611084 0 0 1 -17,-17 V37.16845703125 a17.0191593170166,17.0191593170166 0 0 1 17,-17 h121 a17.0191593170166,17.0191593170166 0 0 1 17,17 V150 A17.0191707611084,17.0191707611084 0 0 1 702.7598571777344,167 zm-121,-144.83154296875 a15.017000198364258,15.017000198364258 0 0 0 -15,15 V150 a15.017000198364258,15.017000198364258 0 0 0 15,15 h121 a15.017000198364258,15.017000198364258 0 0 0 15,-15 V37.16845703125 a15.017000198364258,15.017000198364258 0 0 0 -15,-15 z" fill="#3f3d56" id="svg_38"/><path d="M678.2599182128906,131.5843505859375 h-72 a8,8 0 1 1 0,-16 h72 a8,8 0 0 1 0,16 z" fill="#ccc" id="svg_39"/><path d="M678.2599182128906,101.58433532714844 h-72 a8,8 0 1 1 0,-16 h72 a8,8 0 0 1 0,16 z" fill="#ccc" id="svg_40"/><path d="M678.2599182128906,71.58433532714844 h-72 a8,8 0 1 1 0,-16 h72 a8,8 0 0 1 0,16 z" fill="#69b0fc" id="svg_41" class="" fill-opacity="1"/><circle cx="488.75982666015625" cy="143" r="23" fill="#007aff" id="svg_42" class="" fill-opacity="1"/><path d="M486.4800109863281,151.77398681640625 a2.385309934616089,2.385309934616089 0 0 1 -1.4352699518203735,-0.476749986410141 l-0.025669999420642853,-0.019279999658465385 l-5.405149936676025,-4.138370037078857 a2.4013900756835938,2.4013900756835938 0 1 1 2.9210000038146973,-3.8123700618743896 l3.5010499954223633,2.6845600605010986 l8.273539543151855,-10.789899826049805 a2.401279926300049,2.401279926300049 0 0 1 3.36683988571167,-0.44444000720977783 l-0.05144000053405762,0.06983999907970428 l0.05277999863028526,-0.06882999837398529 a2.404099941253662,2.404099941253662 0 0 1 0.44444000720977783,3.3668699264526367 L488.3905334472656,150.8367919921875 A2.402369976043701,2.402369976043701 0 0 1 486.4800109863281,151.77398681640625 z" fill="#fff" id="svg_43"/><circle cx="788.7598266601562" cy="246" r="23" fill="#3f3d56" id="svg_44"/><path d="M786.4800109863281,254.77398681640625 a2.385309934616089,2.385309934616089 0 0 1 -1.4352699518203735,-0.476749986410141 l-0.025669999420642853,-0.019279999658465385 l-5.405149936676025,-4.138370037078857 a2.4013900756835938,2.4013900756835938 0 1 1 2.9210000038146973,-3.8123700618743896 l3.5010499954223633,2.6845600605010986 l8.273539543151855,-10.789899826049805 a2.401279926300049,2.401279926300049 0 0 1 3.36683988571167,-0.44444000720977783 l-0.05144000053405762,0.06983999907970428 l0.05277999863028526,-0.06882999837398529 a2.404099941253662,2.404099941253662 0 0 1 0.44444000720977783,3.3668699264526367 L788.3905334472656,253.8367919921875 A2.402369976043701,2.402369976043701 0 0 1 786.4800109863281,254.77398681640625 z" fill="#fff" id="svg_45"/><circle cx="715.7598266601562" cy="23" r="23" fill="#007aff" id="svg_46" class="selected" fill-opacity="1"/><path d="M713.4800109863281,31.774002075195312 a2.385309934616089,2.385309934616089 0 0 1 -1.4352699518203735,-0.476749986410141 l-0.025669999420642853,-0.019279999658465385 l-5.405149936676025,-4.138370037078857 a2.4013900756835938,2.4013900756835938 0 1 1 2.9210000038146973,-3.8123700618743896 l3.5010499954223633,2.6845600605010986 l8.273539543151855,-10.789899826049805 a2.401279926300049,2.401279926300049 0 0 1 3.36683988571167,-0.44444000720977783 l-0.05144000053405762,0.06983999907970428 l0.05277999863028526,-0.06882999837398529 a2.404099941253662,2.404099941253662 0 0 1 0.44444000720977783,3.3668699264526367 L715.3905334472656,30.836807250976562 A2.402369976043701,2.402369976043701 0 0 1 713.4800109863281,31.774002075195312 z" fill="#fff" id="svg_47"/></g></svg>