<svg data-name="Layer 1" xmlns="http://www.w3.org/2000/svg" width="740.67538" height="597.17519"><rect id="backgroundrect" width="100%" height="100%" x="0" y="0" fill="none" stroke="none"/><g class="currentLayer" style=""><title>Layer 1</title><path d="M421.94932556152344,528.3070220947266 c-5.121580123901367,-7.171750068664551 -12.05469036102295,-12.419190406799316 -20.770999908447266,-14.383110046386719 c-7.600580215454102,-1.712589979171753 -15.416000366210938,-1.4207199811935425 -23.14208984375,-1.3611500263214111 l-97.6923828125,0.7533000111579895 c-8.366700172424316,0.06451000273227692 -16.388669967651367,7.313109874725342 -16,16 c0.3857400119304657,8.613579750061035 7.031740188598633,16.069150924682617 16,16 q42.92578125,-0.3310000002384186 85.85108184814453,-0.6620000004768372 c6.746580123901367,-0.052000001072883606 13.4970703125,-0.17371000349521637 20.244140625,-0.15154999494552612 c1.5151300430297852,0.004939999897032976 3.0239200592041016,0.08483999967575073 4.537590026855469,0.10199999809265137 c0.3666999936103821,0.004149999935179949 0.6313499808311462,0.000910000002477318 0.8183599710464478,-0.007000000216066837 c0.046879999339580536,0.014279999770224094 0.08642999827861786,0.027340000495314598 0.1474599987268448,0.04407000169157982 c0.7895600199699402,0.21679000556468964 1.5996099710464478,0.366210013628006 2.3940000534057617,0.5721399784088135 c-0.2783200144767761,0.008299999870359898 0.5151299834251404,0.5033000111579895 0.913569986820221,0.6710000038146973 c0.05468999966979027,0.1080000028014183 0.17138999700546265,0.29938000440597534 0.366210013628006,0.5951499938964844 c0.2720000147819519,0.5099999904632568 1.0771499872207642,2.0586600303649902 1.1103500127792358,2.009890079498291 a71.76183319091797,71.76183319091797 0 0 1 2.9868199825286865,9.392889976501465 c1.8593800067901611,7.04718017578125 2.2680699825286865,8.520259857177734 2.5356500148773193,15.131950378417969 c0.3383699953556061,8.35200023651123 7.117179870605469,16.397829055786133 16,16 c8.378899574279785,-0.37529999017715454 16.362789154052734,-7.042359828948975 16,-16 C433.63780212402344,557.9204254150391 430.98838806152344,540.9649810791016 421.94932556152344,528.3070220947266 z" fill="#e6e6e6" id="svg_1"/><path d="M286.08653259277344,564.4125518798828 c-1.8350000381469727,-11.119629859924316 -3.634769916534424,-22.246370315551758 -5.505370140075684,-33.359519958496094 c-1.8980000019073486,-11.274169921875 -5.774419784545898,-21.598119735717773 -14.547860145568848,-28.997499465942383 c-2.3442299365997314,-1.9768799543380737 -4.774899959564209,-3.8226799964904785 -7.215819835662842,-5.662759780883789 c-0.8583899736404419,-0.6467999815940857 -1.7153300046920776,-1.2945599555969238 -2.563469886779785,-1.9556599855422974 c-0.05077999830245972,-0.03951999917626381 -0.08299999684095383,-0.06430000066757202 -0.12700000405311584,-0.09860999882221222 c-0.09325999766588211,-0.08020000159740448 -0.20507000386714935,-0.1755100041627884 -0.355459988117218,-0.30272001028060913 c-3.6567399501800537,-3.0947999954223633 -7.190000057220459,-6.327229976654053 -10.555669784545898,-9.763179779052734 q-4.483150005340576,-4.577290058135986 -8.57470989227295,-9.545000076293945 q-1.0224599838256836,-1.2407100200653076 -2.018549919128418,-2.503659963607788 c-0.1142600029706955,-0.1448100060224533 -0.7294899821281433,-0.9399200081825256 -1.1347700357437134,-1.4587500095367432 c-0.37700000405311584,-0.5192700028419495 -1.0659099817276,-1.4570000171661377 -1.1816400289535522,-1.6207300424575806 q-1.1638000011444092,-1.6456899642944336 -2.286129951477051,-3.322000026702881 a156.1261749267578,156.1261749267578 0 0 1 -13.187000274658203,-24.115489959716797 q-0.5471299886703491,-1.251189947128296 -1.0683599710464478,-2.5170700550079346 c-0.09325999766588211,-0.2575399875640869 -0.21387000381946564,-0.5883399844169617 -0.37400001287460327,-1.0287599563598633 c-0.7412099838256836,-2.038330078125 -1.4809999465942383,-4.0741801261901855 -2.1586899757385254,-6.136650085449219 q-2.1599199771881104,-6.571080207824707 -3.713870048522949,-13.336199760437012 q-0.7683200240135193,-3.3404901027679443 -1.3832999467849731,-6.714900016784668 q-0.3171499967575073,-1.7352900505065918 -0.5932599902153015,-3.4777700901031494 c-0.03027999959886074,-0.1928499937057495 -0.20999999344348907,-1.4461699724197388 -0.31591999530792236,-2.154360055923462 c-0.07812999933958054,-0.7116199731826782 -0.22363999485969543,-1.9715499877929688 -0.24316999316215515,-2.166179895401001 q-0.17576999962329865,-1.7564599514007568 -0.31200000643730164,-3.5163400173187256 q-0.30687999725341797,-3.9601199626922607 -0.41499999165534973,-7.933460235595703 q-0.18456000089645386,-7.061369895935059 0.2529299855232239,-14.121709823608398 c0.16599999368190765,-2.644659996032715 0.4023500084877014,-5.282450199127197 0.6933599710464478,-7.915289878845215 c0.017580000683665276,-0.1617799997329712 0.03125,-0.2904599905014038 0.043949998915195465,-0.4064199924468994 c0.017580000683665276,-0.1175599992275238 0.03807999938726425,-0.251120001077652 0.0625,-0.41734999418258667 c0.21533000469207764,-1.4550000429153442 0.44189000129699707,-2.9079999923706055 0.6953099966049194,-4.35644006729126 a159.29393005371094,159.29393005371094 0 0 1 3.739259958267212,-16.313440322875977 q1.087649941444397,-3.808579921722412 2.362790107727051,-7.555379867553711 q0.5683599710464478,-1.6632499694824219 1.1728500127792358,-3.313770055770874 c-0.02637000009417534,0.07100000232458115 1.182129979133606,-3.015739917755127 1.198240041732788,-3.119450092315674 c4.7949299812316895,-11.329059600830078 12.637700080871582,-21.656999588012695 12.64844036102295,-34.52642822265625 c0.007329999934881926,-8.713319778442383 -7.364260196685791,-17.060060501098633 -16,-16.657390594482422 a16.625410079956055,16.625410079956055 0 0 0 -16,16.657390594482422 c0,0.19564999639987946 -0.0010000000474974513,0.36258000135421753 -0.0014600000577047467,0.5246099829673767 c-0.08056999742984772,0.2712700068950653 -0.14794999361038208,0.4976100027561188 -0.2084999978542328,0.6977699995040894 c-0.9350600242614746,2.0320000648498535 -2.0805699825286865,3.9628500938415527 -3.1069300174713135,5.944379806518555 c-2.8105499744415283,5.423449993133545 -5.209479808807373,11.024820327758789 -7.488279819488525,16.708419799804688 a159.8251953125,159.8251953125 0 0 0 -8.52929973602295,28.628250122070312 a182.09800720214844,182.09800720214844 0 0 0 -0.967769980430603,65.04019165039062 c6.203609943389893,37.812801361083984 26.661619186401367,74.00900268554688 55.10300064086914,98.33927917480469 c2.4682600498199463,2.111340045928955 4.996580123901367,4.151710033416748 7.548830032348633,6.150889873504639 c1.056149959564209,0.8271399736404419 2.1210899353027344,1.6390899419784546 3.1914100646972656,2.445770025253296 c0.5058599710464478,0.3813900053501129 2.601560115814209,2.0339999198913574 1.6796799898147583,1.2333099842071533 c1.9824299812316895,1.691830039024353 2.8169000148773193,2.543299913406372 3.3261799812316895,3.7894399166107178 c0.0737299993634224,0.28760001063346863 0.17430999875068665,0.677619993686676 0.31053999066352844,1.2108800411224365 c0.35888999700546265,1.4053800106048584 0.6997100114822388,2.8075098991394043 0.9829099774360657,4.232590198516846 c2.4755899906158447,12.451430320739746 4.196290016174316,25.111589431762695 6.26416015625,37.64358901977539 c1.4213900566101074,8.610639572143555 12.022000312805176,14.21487045288086 19.682130813598633,11.634200096130371 C283.8276824951172,581.8991241455078 287.60948181152344,573.6388092041016 286.08653259277344,564.4125518798828 z" fill="#e6e6e6" id="svg_2"/><path d="M423.5676727294922,596.7077178955078 a25.374269485473633,25.374269485473633 0 0 1 -25.439939498901367,-25.25 V553.2062530517578 c-19.108890533447266,2.139159917831421 -84.543212890625,1.6435600519180298 -103.29981231689453,-1.370110034942627 v18.891599655151367 a25.440900802612305,25.440900802612305 0 0 1 -50.88037109375,0 v-37.091800689697266 a163.3072052001953,163.3072052001953 0 0 1 -84,-142.38818359375 c0,-49.830078125 22.58300018310547,-96.31446075439453 61.958740234375,-127.53369903564453 a164.0747528076172,164.0747528076172 0 0 1 89.322509765625,-35.1733283996582 c4.427000045776367,-0.34716999530792236 8.880860328674316,-0.5229499936103821 13.23876953125,-0.5229499936103821 c15.352299690246582,0 84.61865997314453,2.371579885482788 101.99781036376953,7.371580123901367 L466.0933074951172,196.06761169433594 a4.159999847412109,4.159999847412109 0 0 1 4.550000190734863,-0.9067400097846985 a4.10044002532959,4.10044002532959 0 0 1 2.584480047225952,3.846679925918579 v6.251999855041504 l7.716310024261475,-7.64208984375 a4.1504998207092285,4.1504998207092285 0 0 1 4.546380043029785,-0.9082099795341492 a4.102190017700195,4.102190017700195 0 0 1 2.587399959564209,3.8481500148773193 v69.86473846435547 a162.7591552734375,162.7591552734375 0 0 1 -39.070308685302734,267.8662109375 v33.16944122314453 A25.374269485473633,25.374269485473633 0 0 1 423.5676727294922,596.7077178955078 zM400.12767028808594,550.9381866455078 v20.519529342651367 a23.440719604492188,23.440719604492188 0 0 0 46.879878997802734,0 V537.0251007080078 l0.5709999799728394,-0.2709999978542328 a162.45628356933594,162.45628356933594 0 0 0 66.53076171875,-58.181640625 a160.32525634765625,160.32525634765625 0 0 0 -27.699220657348633,-206.9600067138672 l-0.3322800099849701,-0.29833999276161194 V200.5573272705078 a2.103140115737915,2.103140115737915 0 0 0 -1.341789960861206,-1.995609998703003 a2.149199962615967,2.149199962615967 0 0 0 -2.381350040435791,0.47315001487731934 l-11.126999855041504,11.020500183105469 V199.0075225830078 a2.103140115737915,2.103140115737915 0 0 0 -1.3417999744415283,-1.9955999851226807 a2.1543500423431396,2.1543500423431396 0 0 0 -2.3852500915527344,0.47655999660491943 l-40.476318359375,40.163570404052734 l-0.5752000212669373,-0.1801699995994568 c-16.1560001373291,-5.056640148162842 -86.51268768310547,-7.454100131988525 -101.981689453125,-7.454100131988525 c-4.305910110473633,0 -8.707269668579102,0.17382000386714935 -13.08154010772705,0.5170900225639343 a162.0748748779297,162.0748748779297 0 0 0 -88.23681640625,34.746089935302734 c-38.89453125,30.837890625 -61.20166015625,76.7509994506836 -61.20166015625,125.966796875 A161.31463623046875,161.31463623046875 0 0 0 245.4316864013672,532.1726226806641 l0.5158699750900269,0.28565001487731934 v38.26953125 a23.44099998474121,23.44099998474121 0 0 0 46.88037109375,0 V549.4420928955078 l1.1848200559616089,0.22266000509262085 c16.855709075927734,3.1713900566101074 87.831787109375,3.6713900566101074 104.98486328125,1.4213900566101074 z" fill="#3f3d56" id="svg_3"/><path d="M287.9978485107422,119.11759948730469 L177.2576141357422,152.39759826660156 a13.88230037689209,13.88230037689209 0 0 0 7.990240097045898,26.59000015258789 l96.90966033935547,-29.1299991607666 l2.030280113220215,-0.6100500226020813 a67.51666259765625,67.51666259765625 0 0 1 8.289999961853027,-29.860000610351562 a6.164889812469482,6.164889812469482 0 0 0 -2,-0.5199999809265137 A6.367000102996826,6.367000102996826 0 0 0 287.9978485107422,119.11759948730469 z" fill="#69b0fc" id="svg_4" class="" fill-opacity="1"/><path d="M183.3326873779297,186.0828399658203 a7.012869834899902,7.012869834899902 0 0 1 -6.637810230255127,-4.801270008087158 l-6.92480993270874,-20.895999908447266 a6.999470233917236,6.999470233917236 0 0 1 4.443240165710449,-8.8466796875 l90.13121795654297,-29.870119094848633 a6.999660015106201,6.999660015106201 0 0 1 8.8466796875,4.441889762878418 l6.92480993270874,20.895999908447266 a6.975649833679199,6.975649833679199 0 0 1 -4.193120002746582,8.75928020477295 q-0.12487000226974487,0.046879999339580536 -0.2521899938583374,0.08838000148534775 l-90.129150390625,29.869140625 A7.002999782562256,7.002999782562256 0 0 1 183.3326873779297,186.0828399658203 z" fill="#2f2e41" id="svg_5"/><path d="M352.12767028808594,82.00759887695312 a70.03128051757812,70.03128051757812 0 0 0 -69.97022247314453,67.8499984741211 c-0.019999999552965164,0.7099999785423279 -0.02978000044822693,1.4299999475479126 -0.02978000044822693,2.1500000953674316 a70,70 0 1 0 70,-70 zm0,138 a68.07099914550781,68.07099914550781 0 0 1 -68,-68 q0,-1.3949999809265137 0.06005999818444252,-2.759999990463257 A67.99800109863281,67.99800109863281 0 1 1 352.12767028808594,220.0076141357422 z" fill="#3f3d56" id="svg_6" class=""/><path d="M411.12767028808594,152.0076141357422 a59,59 0 0 1 -118,0 c0,-1.8700000047683716 0.08984000235795975,-3.7100000381469727 0.2597599923610687,-5.53000020980835 A59,59 0 0 1 411.12767028808594,152.0076141357422 z" fill="#e6e6e6" id="svg_7"/><path d="M369.6975555419922,155.92759704589844 a14.047530174255371,14.047530174255371 0 0 0 -5.469719886779785,-4.329999923706055 a53.13872146606445,53.13872146606445 0 0 0 -8.220219612121582,-2.700000047683716 V132.8376007080078 a23.395870208740234,23.395870208740234 0 0 1 11.689940452575684,5.329999923706055 l3.2602601051330566,-6.949999809265137 a21.560680389404297,21.560680389404297 0 0 0 -6.360350131988525,-3.930000066757202 a31.259309768676758,31.259309768676758 0 0 0 -8.069829940795898,-2.069999933242798 v-8.140000343322754 h-7.549799919128418 v8.220000267028809 a20.67243003845215,20.67243003845215 0 0 0 -8.25,2.7699999809265137 a16.398799896240234,16.398799896240234 0 0 0 -5.5903401374816895,5.480000019073486 a13.771129608154297,13.771129608154297 0 0 0 -1.989740014076233,7.289999961853027 a12.462750434875488,12.462750434875488 0 0 0 2.2899999618530273,7.800000190734863 a14.51021957397461,14.51021957397461 0 0 0 5.699699878692627,4.519999980926514 a52.69205856323242,52.69205856323242 0 0 0 8.360360145568848,2.7699999809265137 v15.390000343322754 A24.98811912536621,24.98811912536621 0 0 1 335.5876922607422,165.76759338378906 l-3.259769916534424,6.960000038146973 a24.580419540405273,24.580419540405273 0 0 0 7.439949989318848,4.21999979019165 a34.16141891479492,34.16141891479492 0 0 0 9.210000038146973,1.9199999570846558 v8.069999694824219 h7.549799919128418 v-8.220000267028809 a19.53849983215332,19.53849983215332 0 0 0 11.210000038146973,-5.139999866485596 a13.589590072631836,13.589590072631836 0 0 0 4.180180072784424,-10.100000381469727 A12.054900169372559,12.054900169372559 0 0 0 369.6975555419922,155.92759704589844 zm-20.19969940185547,-8.729999542236328 a14.498570442199707,14.498570442199707 0 0 1 -5.030280113220215,-2.700000047683716 a5.320459842681885,5.320459842681885 0 0 1 -1.7797800302505493,-4.179999828338623 a6.725570201873779,6.725570201873779 0 0 1 1.8198200464248657,-4.809999942779541 a9.202210426330566,9.202210426330566 0 0 1 4.990240097045898,-2.5899999141693115 zm11.25,21.280000686645508 a8.557499885559082,8.557499885559082 0 0 1 -4.740240097045898,2.4700000286102295 V157.7075958251953 a13.239640235900879,13.239640235900879 0 0 1 4.740240097045898,2.369999885559082 a4.657750129699707,4.657750129699707 0 0 1 1.6298799514770508,3.700000047683716 A6.803899765014648,6.803899765014648 0 0 1 360.7478485107422,168.4776153564453 z" fill="#007aff" id="svg_8" class="" fill-opacity="1"/><path d="M186.5467071533203,270.7718048095703 a7.02318000793457,7.02318000793457 0 0 1 -6.775000095367432,-5.215819835662842 l-3.7701399326324463,-14.270000457763672 a7.003900051116943,7.003900051116943 0 0 1 4.975090026855469,-8.55126953125 l118.94068145751953,-31.429689407348633 a7.015369892120361,7.015369892120361 0 0 1 8.550999641418457,4.985350131988525 l3.193850040435791,12.089839935302734 l-0.5983899831771851,0.046390000730752945 a160.16253662109375,160.16253662109375 0 0 0 -84.10753631591797,31.8710994720459 l-0.1734600067138672,0.08399999886751175 l-38.460208892822266,10.159669876098633 A6.96258020401001,6.96258020401001 0 0 1 186.5467071533203,270.7718048095703 z" fill="#2f2e41" id="svg_9"/><path d="M166.84779357910156,341.2581024169922 a98.10800170898438,98.10800170898438 0 0 1 -39.122169494628906,-14.792160034179688 A95.5270004272461,95.5270004272461 0 0 1 111.55168151855469,313.2375946044922 c-4.827859878540039,-4.924339771270752 -9.446499824523926,-10.521220207214355 -11.837809562683105,-17.079200744628906 a25.298999786376953,25.298999786376953 0 0 1 0.3312399983406067,-18.76930046081543 a24.333520889282227,24.333520889282227 0 0 1 13.168760299682617,-13.125530242919922 c5.989610195159912,-2.3886098861694336 13.226189613342285,-2.64411997795105 19.055410385131836,-0.028209999203681946 a17.08926010131836,17.08926010131836 0 0 1 6.964330196380615,5.60584020614624 a11.434929847717285,11.434929847717285 0 0 1 1.8102999925613403,3.75816011428833 a7.673719882965088,7.673719882965088 0 0 1 0.09036000072956085,3.7591099739074707 a9.016340255737305,9.016340255737305 0 0 1 -4.7738800048828125,5.7230000495910645 a24.06818962097168,24.06818962097168 0 0 1 -8.152099609375,2.486259937286377 c-2.8601300716400146,0.38999998569488525 -6.968679904937744,0.7448499798774719 -9.267999649047852,-1.5509999990463257 a4.669340133666992,4.669340133666992 0 0 1 -1.0926100015640259,-1.6107900142669678 a3.1143999099731445,3.1143999099731445 0 0 1 -0.1723800003528595,-1.4580700397491455 c-0.03353999927639961,0.21724000573158264 0.13872000575065613,-0.4723599851131439 0.12891000509262085,-0.4448600113391876 c-0.0363599993288517,0.10193999856710434 -0.19383999705314636,0.35040000081062317 0.029999999329447746,-0.03135000169277191 a3.3968300819396973,3.3968300819396973 0 0 1 0.2331099957227707,-0.3630000054836273 c-0.07599999755620956,0.0982699990272522 -0.2429099977016449,0.2622700035572052 0.055149998515844345,-0.019120000302791595 a1.961859941482544,1.961859941482544 0 0 1 0.9142699837684631,-0.5644099712371826 c0.13841000199317932,-0.04032000154256821 0.27882999181747437,-0.07242000102996826 0.41762998700141907,-0.1103300005197525 c0.35277000069618225,-0.09636999666690826 -0.351610004901886,0.005260000005364418 0.00930000003427267,-0.006310000084340572 c0.13926999270915985,-0.004459999967366457 0.2802099883556366,-0.0010000000474974513 0.4189999997615814,-0.007259999867528677 c0.3540000021457672,-0.01590999960899353 -0.3492699861526489,-0.09655000269412994 -0.009999999776482582,-0.011260000057518482 c0.13173000514507294,0.03311999887228012 0.26221999526023865,0.06547000259160995 0.3919999897480011,0.10634999722242355 c0.2820799946784973,0.08886999636888504 -0.1997399926185608,-0.2069299966096878 -0.008589999750256538,0.014460000209510326 c0.2240000069141388,0.2594499886035919 -0.23521000146865845,-0.25235000252723694 0.01940000057220459,-0.0011899999808520079 a4.6244001388549805,4.6244001388549805 0 0 1 0.35767000913619995,0.39430999755859375 a2.3592400550842285,2.3592400550842285 0 0 0 3.315000057220459,0 a2.3993499279022217,2.3993499279022217 0 0 0 0,-3.315000057220459 c-2.3113999366760254,-2.8653500080108643 -6.87706995010376,-2.1573500633239746 -9.215279579162598,0.2643600106239319 c-2.9820001125335693,3.088479995727539 -1.801110029220581,7.983180046081543 1.0995399951934814,10.678000450134277 c3.2836999893188477,3.05076003074646 7.9344000816345215,3.2628400325775146 12.158340454101562,2.7511401176452637 a29.816999435424805,29.816999435424805 0 0 0 10.269180297851562,-2.9019999504089355 a14.398289680480957,14.398289680480957 0 0 0 7.02400016784668,-7.588170051574707 a13.173810005187988,13.173810005187988 0 0 0 -1.0564099550247192,-10.768890380859375 c-3.729300022125244,-7.0111799240112305 -11.451519966125488,-10.60575008392334 -19.084369659423828,-11.22836971282959 a29.812210083007812,29.812210083007812 0 0 0 -21.818790435791016,7.162779808044434 a30.154220581054688,30.154220581054688 0 0 0 -9.888219833374023,20.075000762939453 c-0.6662600040435791,7.995999813079834 2.436079978942871,15.761280059814453 6.959219932556152,22.214319229125977 a84.62745666503906,84.62745666503906 0 0 0 16.77943992614746,17.353300094604492 a102.47322845458984,102.47322845458984 0 0 0 42.8120002746582,20.190710067749023 q2.792370080947876,0.5768499970436096 5.614739894866943,0.9875800013542175 a2.421410083770752,2.421410083770752 0 0 0 2.883419990539551,-1.6371500492095947 a2.3612499237060547,2.3612499237060547 0 0 0 -1.6371599435806274,-2.883430004119873 z" fill="#3f3d56" id="svg_10"/><path d="M390.2330780029297,239.38185119628906 q-30.66309928894043,-0.432779997587204 -61.132999420166016,1.556339979171753 c-6.943299770355225,0.4533799886703491 -12.950719833374023,2.9074199199676514 -12.950719833374023,7.032060146331787 c0,3.44854998588562 5.959640026092529,7.488580226898193 12.950719833374023,7.0320000648498535 q30.454429626464844,-1.988700032234192 61.132999420166016,-1.5563299655914307 C406.9070281982422,253.68125915527344 406.89720153808594,239.6170196533203 390.2330780029297,239.38185119628906 z" fill="#ccc" id="svg_11"/><path d="M360.01939392089844,252.7493438720703 c-2.2092299461364746,0 -54.105709075927734,-0.0825200006365776 -54.105709075927734,-7.250999927520752 c0,-7.168000221252441 51.896480560302734,-7.250490188598633 54.105709075927734,-7.250490188598633 s54.105709075927734,0.0825200006365776 54.105709075927734,7.250490188598633 C414.12510681152344,252.6668243408203 362.22862243652344,252.7493438720703 360.01939392089844,252.7493438720703 zm-52.076419830322266,-7.250999927520752 c1.4201699495315552,2.173340082168579 20.496339797973633,5.250999927520752 52.076419830322266,5.250999927520752 s50.65599822998047,-3.0776400566101074 52.07640838623047,-5.250999927520752 c-1.4201600551605225,-2.1728498935699463 -20.49633026123047,-5.250490188598633 -52.07640838623047,-5.250490188598633 S309.36314392089844,243.3255157470703 307.94297790527344,245.4983673095703 z" fill="#3f3d56" id="svg_12"/><path d="M524.6732635498047,441.1996612548828 c11.488309860229492,-0.3190000057220459 25.78611946105957,-0.7177600264549255 36.80099868774414,-8.764069557189941 a28.26188087463379,28.26188087463379 0 0 0 11.120519638061523,-21.10331916809082 c0.2248300015926361,-6.354589939117432 -2.071000099182129,-11.901490211486816 -6.464879989624023,-15.614080429077148 c-5.7530598640441895,-4.8614301681518555 -14.154000282287598,-6.001689910888672 -23.207380294799805,-3.3410799503326416 l9.380000114440918,-68.5479965209961 l-6.885680198669434,-0.9434300065040588 L534.3896942138672,403.4726104736328 l5.7500901222229,-2.6385600566864014 c6.666369915008545,-3.0576601028442383 15.817310333251953,-4.613649845123291 21.503780364990234,0.1917400062084198 a12.215410232543945,12.215410232543945 0 0 1 4.005760192871094,10.062129974365234 a21.360889434814453,21.360889434814453 0 0 1 -8.274999618530273,15.734600067138672 c-8.571900367736816,6.261260032653809 -19.96858024597168,7.068940162658691 -32.894508361816406,7.430359840393066 z" fill="#3f3d56" id="svg_13"/><rect x="468.2027282714844" y="329.7408142089844" width="37.43223190307617" height="6.950170040130615" fill="#3f3d56" id="svg_14"/><path d="M203.48521423339844,302.7375946044922 a7.012430191040039,7.012430191040039 0 0 1 -6.9039998054504395,-5.917479991912842 L194.29637145996094,282.2386016845703 a7.007629871368408,7.007629871368408 0 0 1 5.832149982452393,-7.999509811401367 L321.66001892089844,255.1966094970703 a7.007400035858154,7.007400035858154 0 0 1 7.999000072479248,5.831999778747559 l2.284670114517212,14.581999778747559 a7.007259845733643,7.007259845733643 0 0 1 -5.831789970397949,7.9995198249816895 l-121.53150177001953,19.04199981689453 A7.095510005950928,7.095510005950928 0 0 1 203.48521423339844,302.7375946044922 z" fill="#2f2e41" id="svg_15"/><circle cx="153.1893768310547" cy="80.85472106933594" r="51" fill="#69b0fc" id="svg_16" class="" fill-opacity="1"/><path d="M182.06468200683594,94.0506591796875 a12.095149993896484,12.095149993896484 0 0 0 4.366849899291992,-2.676140069961548 a8.13344955444336,8.13344955444336 0 0 0 2.2547500133514404,-6.482999801635742 a5.471560001373291,5.471560001373291 0 0 0 -2.512089967727661,-4.164120197296143 c-1.8457000255584717,-1.1350500583648682 -4.284589767456055,-1.092170000076294 -6.746920108795166,0.049300000071525574 l-0.2842000126838684,-19.907869338989258 l-1.999690055847168,0.028459999710321426 l0.33399999141693115,23.403810501098633 l1.5223100185394287,-0.9984400272369385 c1.7652900218963623,-1.1558799743652344 4.301770210266113,-1.994070053100586 6.126629829406738,-0.8715699911117554 a3.513730049133301,3.513730049133301 0 0 1 1.572909951210022,2.6895298957824707 a6.146190166473389,6.146190166473389 0 0 1 -1.676259994506836,4.833660125732422 c-2.1679399013519287,2.1511099338531494 -5.376840114593506,2.871890068054199 -9.039239883422852,3.5311200618743896 l0.354420006275177,1.9681400060653687 A32.96255874633789,32.96255874633789 0 0 0 182.06468200683594,94.0506591796875 z" fill="#2f2e41" id="svg_17"/><rect x="162.1126708984375" y="126.1859359741211" width="10.7716703414917" height="1.999750018119812" transform="rotate(-8.61162, -256.725, -85.4931)" fill="#2f2e41" id="svg_18"/><rect x="127.35467529296875" y="126.29961395263672" width="10.7716703414917" height="1.999750018119812" transform="rotate(-8.61162, -257.866, -90.4694)" fill="#2f2e41" id="svg_19"/><path d="M186.89244079589844,301.8460235595703 a9.030409812927246,9.030409812927246 0 0 1 -8.434450149536133,-5.855000019073486 L143.29490661621094,201.8220977783203 a46.531558990478516,46.531558990478516 0 0 1 27.2841796875,-59.802249908447266 L199.17076110839844,131.34361267089844 a8.957690238952637,8.957690238952637 0 0 1 6.878049850463867,0.238769993185997 a8.831859588623047,8.831859588623047 0 0 1 4.67540979385376,4.98583984375 L275.86070251464844,259.5520782470703 a9.001500129699707,9.001500129699707 0 0 1 -5.256589889526367,11.638179779052734 L190.03770446777344,301.2742462158203 A8.976119995117188,8.976119995117188 0 0 1 186.89244079589844,301.8460235595703 z" fill="#2f2e41" id="svg_20"/><path d="M190.49607849121094,134.5824737548828 l64.62899780273438,86.4256591796875 L211.3934783935547,135.48960876464844 a8.079000473022461,8.079000473022461 0 0 0 -10.348999977111816,-4.8460001945495605 z" fill="#e6e6e6" id="svg_21"/><path d="M292.8280487060547,200.2176055908203 l-115.39524841308594,-7.433119773864746 a13.879440307617188,13.879440307617188 0 1 1 1.784250020980835,-27.701480865478516 l115.39530181884766,7.43257999420166 a6.499460220336914,6.499460220336914 0 0 1 6.068819999694824,6.904069900512695 l-0.9484999775886536,14.7291898727417 a6.5005598068237305,6.5005598068237305 0 0 1 -6.904620170593262,6.068759918212891 z" fill="#69b0fc" id="svg_22" class="" fill-opacity="1"/><path d="M261.99278259277344,204.9827423095703 q-0.228520005941391,0 -0.4582499861717224,-0.014639999717473984 h-0.0002500000118743628 l-94.756103515625,-6.103519916534424 a6.999189853668213,6.999189853668213 0 0 1 -6.53564977645874,-7.435060024261475 l1.620360016822815,-25.158199310302734 a6.999670028686523,6.999670028686523 0 0 1 7.435919761657715,-6.535160064697266 l94.75599670410156,6.103000164031982 a7.00754976272583,7.00754976272583 0 0 1 6.535399913787842,7.435060024261475 l-1.6201200485229492,25.158689498901367 a7.01885986328125,7.01885986328125 0 0 1 -4.546140193939209,6.11083984375 A6.926000118255615,6.926000118255615 0 0 1 261.99278259277344,204.9827423095703 z" fill="#2f2e41" id="svg_23"/><path d="M152.60475158691406,46.94053649902344 c6.709229946136475,-5.770309925079346 15.922579765319824,-0.6083899736404419 23.616729736328125,-1.5119999647140503 c7.36113977432251,-0.864549994468689 13.173689842224121,-7.467529773712158 14.658570289611816,-14.482370376586914 c1.7323499917984009,-8.184000015258789 -2.5155301094055176,-16.383190155029297 -8.776630401611328,-21.485769271850586 c-6.857450008392334,-5.588580131530762 -15.952139854431152,-7.192930221557617 -24.570419311523438,-6.158999919891357 c-9.877670288085938,1.184999942779541 -18.911230087280273,5.7893500328063965 -27.017000198364258,11.358539581298828 a121.85037231445312,121.85037231445312 0 0 0 -21.441640853881836,18.169170379638672 c-5.751110076904297,6.351659774780273 -10.623769760131836,13.922699928283691 -12.179739952087402,22.46976089477539 c-1.4140000343322754,7.767509937286377 -0.33430999517440796,16.375 4.257500171661377,22.95513916015625 a24.205280303955078,24.205280303955078 0 0 0 9.474169731140137,7.805290222167969 c3.937429904937744,1.9334399700164795 8.137539863586426,3.31564998626709 11.952170372009277,5.501689910888672 c5.767749786376953,3.3053200244903564 11.373510360717773,10.158829689025879 9.56676959991455,17.290939331054688 a9.792810440063477,9.792810440063477 0 0 1 -2.2260000705718994,4.190000057220459 c-1.2906500101089478,1.4327499866485596 -3.6187000274658203,-0.4605500102043152 -2.3246500492095947,-1.8970799446105957 c2.272819995880127,-2.52305006980896 2.183310031890869,-5.887919902801514 0.9720600247383118,-8.900230407714844 a16.272329330444336,16.272329330444336 0 0 0 -7.233459949493408,-7.954269886016846 c-3.993000030517578,-2.282939910888672 -8.401459693908691,-3.6921000480651855 -12.494000434875488,-5.771560192108154 a27.022539138793945,27.022539138793945 0 0 1 -9.911430358886719,-8.213850021362305 c-4.898220062255859,-6.807000160217285 -6.363379955291748,-15.665849685668945 -5.252500057220459,-23.861000061035156 c1.202139973640442,-8.868410110473633 5.758689880371094,-16.927200317382812 11.470649719238281,-23.680450439453125 c6.216209888458252,-7.349440097808838 13.851900100708008,-13.570540428161621 21.6524600982666,-19.159360885620117 c8.370059967041016,-5.99685001373291 17.617340087890625,-11.066780090332031 27.850080490112305,-12.900489807128906 c8.870160102844238,-1.5895400047302246 18.484739303588867,-0.6109099984169006 26.24131965637207,4.222939968109131 c7.240260124206543,4.51209020614624 12.792320251464844,12.273770332336426 13.344490051269531,20.946699142456055 a22.235370635986328,22.235370635986328 0 0 1 -10.376270294189453,19.942060470581055 a19.10099983215332,19.10099983215332 0 0 1 -11.40999984741211,2.6433300971984863 c-4.261600017547607,-0.27279001474380493 -8.5272798538208,-1.57778000831604 -12.816089630126953,-1.2154799699783325 a8.940770149230957,8.940770149230957 0 0 0 -5.268070220947266,2.128499984741211 c-1.465880036354065,1.260740041732788 -3.2129199504852295,-1.1806999444961548 -1.7590800523757935,-2.4310901165008545 z" fill="#2f2e41" id="svg_24"/></g></svg>