<?xml version="1.0" standalone="no"?>
<svg xmlns:xlink="http://www.w3.org/1999/xlink" id="wave" style="transform:rotate(0deg); transition: 0.3s" viewBox="0 0 1440 490" version="1.1" xmlns="http://www.w3.org/2000/svg"><defs><linearGradient id="sw-gradient-0" x1="0" x2="0" y1="1" y2="0"><stop stop-color="rgba(249, 248, 247, 1)" offset="0%"/><stop stop-color="rgba(242, 207, 196, 1)" offset="100%"/></linearGradient></defs><path style="transform:translate(0, 0px); opacity:1" fill="url(#sw-gradient-0)" d="M0,343L26.7,285.8C53.3,229,107,114,160,130.7C213.3,147,267,294,320,302.2C373.3,310,427,180,480,114.3C533.3,49,587,49,640,73.5C693.3,98,747,147,800,187.8C853.3,229,907,261,960,261.3C1013.3,261,1067,229,1120,253.2C1173.3,278,1227,359,1280,375.7C1333.3,392,1387,343,1440,318.5C1493.3,294,1547,294,1600,277.7C1653.3,261,1707,229,1760,253.2C1813.3,278,1867,359,1920,326.7C1973.3,294,2027,147,2080,106.2C2133.3,65,2187,131,2240,138.8C2293.3,147,2347,98,2400,89.8C2453.3,82,2507,114,2560,106.2C2613.3,98,2667,49,2720,65.3C2773.3,82,2827,163,2880,163.3C2933.3,163,2987,82,3040,114.3C3093.3,147,3147,294,3200,343C3253.3,392,3307,343,3360,326.7C3413.3,310,3467,327,3520,310.3C3573.3,294,3627,245,3680,245C3733.3,245,3787,294,3813,318.5L3840,343L3840,490L3813.3,490C3786.7,490,3733,490,3680,490C3626.7,490,3573,490,3520,490C3466.7,490,3413,490,3360,490C3306.7,490,3253,490,3200,490C3146.7,490,3093,490,3040,490C2986.7,490,2933,490,2880,490C2826.7,490,2773,490,2720,490C2666.7,490,2613,490,2560,490C2506.7,490,2453,490,2400,490C2346.7,490,2293,490,2240,490C2186.7,490,2133,490,2080,490C2026.7,490,1973,490,1920,490C1866.7,490,1813,490,1760,490C1706.7,490,1653,490,1600,490C1546.7,490,1493,490,1440,490C1386.7,490,1333,490,1280,490C1226.7,490,1173,490,1120,490C1066.7,490,1013,490,960,490C906.7,490,853,490,800,490C746.7,490,693,490,640,490C586.7,490,533,490,480,490C426.7,490,373,490,320,490C266.7,490,213,490,160,490C106.7,490,53,490,27,490L0,490Z"/><defs><linearGradient id="sw-gradient-1" x1="0" x2="0" y1="1" y2="0"><stop stop-color="rgba(243, 241, 239, 1)" offset="0%"/><stop stop-color="rgba(216.722, 176.574, 171.985, 1)" offset="100%"/></linearGradient></defs><path style="transform:translate(0, 50px); opacity:0.9" fill="url(#sw-gradient-1)" d="M0,147L26.7,187.8C53.3,229,107,310,160,285.8C213.3,261,267,131,320,114.3C373.3,98,427,196,480,245C533.3,294,587,294,640,253.2C693.3,212,747,131,800,81.7C853.3,33,907,16,960,49C1013.3,82,1067,163,1120,204.2C1173.3,245,1227,245,1280,204.2C1333.3,163,1387,82,1440,98C1493.3,114,1547,229,1600,294C1653.3,359,1707,376,1760,392C1813.3,408,1867,425,1920,408.3C1973.3,392,2027,343,2080,302.2C2133.3,261,2187,229,2240,228.7C2293.3,229,2347,261,2400,228.7C2453.3,196,2507,98,2560,73.5C2613.3,49,2667,98,2720,122.5C2773.3,147,2827,147,2880,163.3C2933.3,180,2987,212,3040,196C3093.3,180,3147,114,3200,73.5C3253.3,33,3307,16,3360,57.2C3413.3,98,3467,196,3520,261.3C3573.3,327,3627,359,3680,375.7C3733.3,392,3787,392,3813,392L3840,392L3840,490L3813.3,490C3786.7,490,3733,490,3680,490C3626.7,490,3573,490,3520,490C3466.7,490,3413,490,3360,490C3306.7,490,3253,490,3200,490C3146.7,490,3093,490,3040,490C2986.7,490,2933,490,2880,490C2826.7,490,2773,490,2720,490C2666.7,490,2613,490,2560,490C2506.7,490,2453,490,2400,490C2346.7,490,2293,490,2240,490C2186.7,490,2133,490,2080,490C2026.7,490,1973,490,1920,490C1866.7,490,1813,490,1760,490C1706.7,490,1653,490,1600,490C1546.7,490,1493,490,1440,490C1386.7,490,1333,490,1280,490C1226.7,490,1173,490,1120,490C1066.7,490,1013,490,960,490C906.7,490,853,490,800,490C746.7,490,693,490,640,490C586.7,490,533,490,480,490C426.7,490,373,490,320,490C266.7,490,213,490,160,490C106.7,490,53,490,27,490L0,490Z"/><defs><linearGradient id="sw-gradient-2" x1="0" x2="0" y1="1" y2="0"><stop stop-color="rgba(249, 248, 247, 1)" offset="0%"/><stop stop-color="rgba(175.739, 164.541, 163.275, 1)" offset="100%"/></linearGradient></defs><path style="transform:translate(0, 100px); opacity:0.8" fill="url(#sw-gradient-2)" d="M0,147L26.7,163.3C53.3,180,107,212,160,253.2C213.3,294,267,343,320,318.5C373.3,294,427,196,480,163.3C533.3,131,587,163,640,179.7C693.3,196,747,196,800,171.5C853.3,147,907,98,960,65.3C1013.3,33,1067,16,1120,73.5C1173.3,131,1227,261,1280,269.5C1333.3,278,1387,163,1440,147C1493.3,131,1547,212,1600,269.5C1653.3,327,1707,359,1760,310.3C1813.3,261,1867,131,1920,106.2C1973.3,82,2027,163,2080,236.8C2133.3,310,2187,376,2240,392C2293.3,408,2347,376,2400,375.7C2453.3,376,2507,408,2560,416.5C2613.3,425,2667,408,2720,367.5C2773.3,327,2827,261,2880,196C2933.3,131,2987,65,3040,65.3C3093.3,65,3147,131,3200,155.2C3253.3,180,3307,163,3360,196C3413.3,229,3467,310,3520,351.2C3573.3,392,3627,392,3680,392C3733.3,392,3787,392,3813,392L3840,392L3840,490L3813.3,490C3786.7,490,3733,490,3680,490C3626.7,490,3573,490,3520,490C3466.7,490,3413,490,3360,490C3306.7,490,3253,490,3200,490C3146.7,490,3093,490,3040,490C2986.7,490,2933,490,2880,490C2826.7,490,2773,490,2720,490C2666.7,490,2613,490,2560,490C2506.7,490,2453,490,2400,490C2346.7,490,2293,490,2240,490C2186.7,490,2133,490,2080,490C2026.7,490,1973,490,1920,490C1866.7,490,1813,490,1760,490C1706.7,490,1653,490,1600,490C1546.7,490,1493,490,1440,490C1386.7,490,1333,490,1280,490C1226.7,490,1173,490,1120,490C1066.7,490,1013,490,960,490C906.7,490,853,490,800,490C746.7,490,693,490,640,490C586.7,490,533,490,480,490C426.7,490,373,490,320,490C266.7,490,213,490,160,490C106.7,490,53,490,27,490L0,490Z"/><defs><linearGradient id="sw-gradient-3" x1="0" x2="0" y1="1" y2="0"><stop stop-color="rgba(200.784, 171.987, 162.739, 1)" offset="0%"/><stop stop-color="rgba(228.105, 228.105, 228.105, 1)" offset="100%"/></linearGradient></defs><path style="transform:translate(0, 150px); opacity:0.7" fill="url(#sw-gradient-3)" d="M0,147L26.7,122.5C53.3,98,107,49,160,73.5C213.3,98,267,196,320,245C373.3,294,427,294,480,285.8C533.3,278,587,261,640,212.3C693.3,163,747,82,800,73.5C853.3,65,907,131,960,138.8C1013.3,147,1067,98,1120,98C1173.3,98,1227,147,1280,138.8C1333.3,131,1387,65,1440,49C1493.3,33,1547,65,1600,114.3C1653.3,163,1707,229,1760,285.8C1813.3,343,1867,392,1920,383.8C1973.3,376,2027,310,2080,285.8C2133.3,261,2187,278,2240,245C2293.3,212,2347,131,2400,147C2453.3,163,2507,278,2560,302.2C2613.3,327,2667,261,2720,204.2C2773.3,147,2827,98,2880,114.3C2933.3,131,2987,212,3040,261.3C3093.3,310,3147,327,3200,351.2C3253.3,376,3307,408,3360,424.7C3413.3,441,3467,441,3520,424.7C3573.3,408,3627,376,3680,318.5C3733.3,261,3787,180,3813,138.8L3840,98L3840,490L3813.3,490C3786.7,490,3733,490,3680,490C3626.7,490,3573,490,3520,490C3466.7,490,3413,490,3360,490C3306.7,490,3253,490,3200,490C3146.7,490,3093,490,3040,490C2986.7,490,2933,490,2880,490C2826.7,490,2773,490,2720,490C2666.7,490,2613,490,2560,490C2506.7,490,2453,490,2400,490C2346.7,490,2293,490,2240,490C2186.7,490,2133,490,2080,490C2026.7,490,1973,490,1920,490C1866.7,490,1813,490,1760,490C1706.7,490,1653,490,1600,490C1546.7,490,1493,490,1440,490C1386.7,490,1333,490,1280,490C1226.7,490,1173,490,1120,490C1066.7,490,1013,490,960,490C906.7,490,853,490,800,490C746.7,490,693,490,640,490C586.7,490,533,490,480,490C426.7,490,373,490,320,490C266.7,490,213,490,160,490C106.7,490,53,490,27,490L0,490Z"/></svg>