<?xml version="1.0" standalone="no"?>
<!DOCTYPE svg PUBLIC "-//W3C//DTD SVG 20010904//EN"
 "http://www.w3.org/TR/2001/REC-SVG-20010904/DTD/svg10.dtd">
<svg version="1.0" xmlns="http://www.w3.org/2000/svg"
 width="128.000000pt" height="128.000000pt" viewBox="0 0 128.000000 128.000000"
 preserveAspectRatio="xMidYMid meet">
<metadata>
Created by potrace 1.16, written by Peter Selinger 2001-2019
</metadata>
<g transform="translate(0.000000,128.000000) scale(0.100000,-0.100000)"
fill="#000000" stroke="none">
<path d="M452 957 c-250 -250 -323 -329 -320 -345 2 -12 135 -142 325 -316
l322 -296 186 0 185 0 0 23 c0 16 -80 95 -311 306 l-310 284 310 311 c223 223
311 317 311 334 l0 22 -188 0 -187 0 -323 -323z m290 -30 c-188 -188 -292
-299 -292 -312 0 -17 232 -238 538 -512 l47 -42 -111 -1 -111 0 -302 277 -302
277 303 303 303 303 110 0 110 0 -293 -293z"/>
</g>
</svg>
